; NON-PLATED HOLES START AT T1
; THROUGH (PLATED) HOLES START AT T100
M48
INCH
T1C0.086614
T100C0.035000
T101C0.030000
T102C0.015748
%
T1
X012149Y012393
T100
X009930Y005985
X015181Y006989
X027181Y007990
X015181Y008989
X009430Y005119
X017181Y017044
X018181Y007989
X027888Y008697
X018181Y005989
X010930Y007717
X025767Y006575
X006832Y006619
X025391Y017857
X007832Y008351
X008913Y015989
X026474Y007282
X007332Y007485
X029302Y005868
X027888Y004454
X015181Y007989
X010430Y006851
X008332Y009217
X030009Y006575
X015181Y005989
X028595Y005161
X027513Y015735
X005449Y017989
X018181Y008989
X018181Y006989
X014181Y017044
T101
X022177Y010989
X022183Y009989
X024183Y009989
X023179Y010989
T102
X012069Y010819
T00
M30
