G04 MADE WITH FRITZING*
G04 WWW.FRITZING.ORG*
G04 DOUBLE SIDED*
G04 HOLES PLATED*
G04 CONTOUR ON CENTER OF CONTOUR VECTOR*
%FSLAX26Y26*%
%MOIN*%
%ADD10C,0.075000*%
%ADD11C,0.070000*%
%ADD12C,0.039370*%
%ADD13R,0.075000X0.075000*%
%ADD14R,0.047244X0.043307*%
%ADD15R,0.062992X0.074803*%
%ADD16R,0.311111X0.355556*%
%ADD17C,0.012000*%
%ADD18C,0.020000*%
%ADD19R,0.001000X0.001000*%
%G04COPPER0*%
%FSLAX26Y26*%
%MOIN*%
D10*
X1418140Y1704495D03*
X1718140Y1704495D03*
X2539190Y1785727D03*
X2751320Y1573595D03*
X544939Y1798995D03*
X891349Y1598995D03*
X1518140Y898990D03*
X1818140Y898990D03*
X1518140Y798990D03*
X1818140Y798990D03*
X1518140Y698990D03*
X1818140Y698990D03*
X1518140Y598990D03*
X1818140Y598990D03*
X2788850Y869710D03*
X3000980Y657580D03*
X2718140Y799000D03*
X2930270Y586860D03*
X2647430Y728290D03*
X2859560Y516150D03*
X2576720Y657580D03*
X2788850Y445440D03*
X833240Y921750D03*
X1093050Y771750D03*
X783240Y835150D03*
X1043050Y685150D03*
X733240Y748540D03*
X993047Y598540D03*
X683240Y661940D03*
X943047Y511940D03*
D11*
X2317960Y1098990D03*
X2217780Y1098990D03*
X2317960Y1098990D03*
X2217780Y1098990D03*
X2418330Y998990D03*
X2218330Y998990D03*
X2418330Y998990D03*
X2218330Y998990D03*
D12*
X1206920Y1081920D03*
D13*
X1518140Y898990D03*
D14*
X2276372Y909466D03*
X2209442Y909466D03*
D15*
X2339746Y793718D03*
X2217696Y793718D03*
D16*
X3141706Y1927897D03*
D17*
X1501930Y605580D02*
X1109260Y765160D01*
D18*
X2827740Y869710D02*
X2788850Y830820D01*
X2749960Y869710D01*
X2788850Y908600D01*
X2827740Y869710D01*
D02*
X870805Y931810D02*
X843305Y884180D01*
X795674Y911680D01*
X823174Y959310D01*
X870805Y931810D01*
D02*
D19*
X2538500Y1809720D02*
X2539500Y1809720D01*
X2532500Y1808720D02*
X2545500Y1808720D01*
X2528500Y1807720D02*
X2547500Y1807720D01*
X2524500Y1806720D02*
X2550500Y1806720D01*
X2521500Y1805720D02*
X2551500Y1805720D01*
X2517500Y1804720D02*
X2552500Y1804720D01*
X2514500Y1803720D02*
X2554500Y1803720D01*
X2510500Y1802720D02*
X2555500Y1802720D01*
X2507500Y1801720D02*
X2556500Y1801720D01*
X2504500Y1800720D02*
X2557500Y1800720D01*
X2501500Y1799720D02*
X2557500Y1799720D01*
X2498500Y1798720D02*
X2558500Y1798720D01*
X2495500Y1797720D02*
X2559500Y1797720D01*
X2492500Y1796720D02*
X2559500Y1796720D01*
X2490500Y1795720D02*
X2560500Y1795720D01*
X2487500Y1794720D02*
X2560500Y1794720D01*
X2484500Y1793720D02*
X2561500Y1793720D01*
X2482500Y1792720D02*
X2561500Y1792720D01*
X2479500Y1791720D02*
X2561500Y1791720D01*
X2477500Y1790720D02*
X2561500Y1790720D01*
X2474500Y1789720D02*
X2562500Y1789720D01*
X2472500Y1788720D02*
X2562500Y1788720D01*
X2470500Y1787720D02*
X2562500Y1787720D01*
X2468500Y1786720D02*
X2562500Y1786720D01*
X2466500Y1785720D02*
X2562500Y1785720D01*
X2463500Y1784720D02*
X2562500Y1784720D01*
X2461500Y1783720D02*
X2562500Y1783720D01*
X2459500Y1782720D02*
X2562500Y1782720D01*
X2457500Y1781720D02*
X2562500Y1781720D01*
X2456500Y1780720D02*
X2561500Y1780720D01*
X2454500Y1779720D02*
X2561500Y1779720D01*
X2452500Y1778720D02*
X2561500Y1778720D01*
X2450500Y1777720D02*
X2561500Y1777720D01*
X2448500Y1776720D02*
X2560500Y1776720D01*
X2447500Y1775720D02*
X2560500Y1775720D01*
X2445500Y1774720D02*
X2559500Y1774720D01*
X2443500Y1773720D02*
X2559500Y1773720D01*
X2442500Y1772720D02*
X2558500Y1772720D01*
X2440500Y1771720D02*
X2557500Y1771720D01*
X2439500Y1770720D02*
X2557500Y1770720D01*
X2437500Y1769720D02*
X2556500Y1769720D01*
X2436500Y1768720D02*
X2555500Y1768720D01*
X2435500Y1767720D02*
X2554500Y1767720D01*
X2433500Y1766720D02*
X2553500Y1766720D01*
X2432500Y1765720D02*
X2551500Y1765720D01*
X2430500Y1764720D02*
X2549500Y1764720D01*
X2429500Y1763720D02*
X2547500Y1763720D01*
X2428500Y1762720D02*
X2544500Y1762720D01*
X2427500Y1761720D02*
X2541500Y1761720D01*
X2426500Y1760720D02*
X2537500Y1760720D01*
X2424500Y1759720D02*
X2533500Y1759720D01*
X2423500Y1758720D02*
X2530500Y1758720D01*
X2422500Y1757720D02*
X2526500Y1757720D01*
X2421500Y1756720D02*
X2523500Y1756720D01*
X2420500Y1755720D02*
X2520500Y1755720D01*
X2419500Y1754720D02*
X2517500Y1754720D01*
X2418500Y1753720D02*
X2513500Y1753720D01*
X2417500Y1752720D02*
X2511500Y1752720D01*
X2416500Y1751720D02*
X2508500Y1751720D01*
X2415500Y1750720D02*
X2505500Y1750720D01*
X2414500Y1749720D02*
X2502500Y1749720D01*
X2413500Y1748720D02*
X2500500Y1748720D01*
X2412500Y1747720D02*
X2497500Y1747720D01*
X2411500Y1746720D02*
X2495500Y1746720D01*
X2410500Y1745720D02*
X2492500Y1745720D01*
X2410500Y1744720D02*
X2490500Y1744720D01*
X2409500Y1743720D02*
X2488500Y1743720D01*
X2408500Y1742720D02*
X2486500Y1742720D01*
X2407500Y1741720D02*
X2484500Y1741720D01*
X2406500Y1740720D02*
X2482500Y1740720D01*
X2406500Y1739720D02*
X2480500Y1739720D01*
X2405500Y1738720D02*
X2478500Y1738720D01*
X2404500Y1737720D02*
X2476500Y1737720D01*
X2404500Y1736720D02*
X2474500Y1736720D01*
X2403500Y1735720D02*
X2472500Y1735720D01*
X2402500Y1734720D02*
X2471500Y1734720D01*
X2402500Y1733720D02*
X2469500Y1733720D01*
X2401500Y1732720D02*
X2467500Y1732720D01*
X2400500Y1731720D02*
X2466500Y1731720D01*
X2400500Y1730720D02*
X2464500Y1730720D01*
X2399500Y1729720D02*
X2463500Y1729720D01*
X2399500Y1728720D02*
X2461500Y1728720D01*
X2398500Y1727720D02*
X2460500Y1727720D01*
X2398500Y1726720D02*
X2459500Y1726720D01*
X2397500Y1725720D02*
X2457500Y1725720D01*
X2397500Y1724720D02*
X2456500Y1724720D01*
X2396500Y1723720D02*
X2455500Y1723720D01*
X2396500Y1722720D02*
X2454500Y1722720D01*
X2395500Y1721720D02*
X2453500Y1721720D01*
X2395500Y1720720D02*
X2452500Y1720720D01*
X2394500Y1719720D02*
X2451500Y1719720D01*
X2394500Y1718720D02*
X2450500Y1718720D01*
X2394500Y1717720D02*
X2449500Y1717720D01*
X2393500Y1716720D02*
X2448500Y1716720D01*
X2393500Y1715720D02*
X2447500Y1715720D01*
X2392500Y1714720D02*
X2446500Y1714720D01*
X2392500Y1713720D02*
X2445500Y1713720D01*
X2392500Y1712720D02*
X2444500Y1712720D01*
X2391500Y1711720D02*
X2444500Y1711720D01*
X2391500Y1710720D02*
X2443500Y1710720D01*
X2391500Y1709720D02*
X2442500Y1709720D01*
X2390500Y1708720D02*
X2442500Y1708720D01*
X2390500Y1707720D02*
X2441500Y1707720D01*
X2390500Y1706720D02*
X2440500Y1706720D01*
X2390500Y1705720D02*
X2440500Y1705720D01*
X2389500Y1704720D02*
X2439500Y1704720D01*
X2389500Y1703720D02*
X2439500Y1703720D01*
X2389500Y1702720D02*
X2438500Y1702720D01*
X2389500Y1701720D02*
X2438500Y1701720D01*
X2388500Y1700720D02*
X2437500Y1700720D01*
X2388500Y1699720D02*
X2437500Y1699720D01*
X2388500Y1698720D02*
X2437500Y1698720D01*
X2388500Y1697720D02*
X2436500Y1697720D01*
X2388500Y1696720D02*
X2436500Y1696720D01*
X2388500Y1695720D02*
X2436500Y1695720D01*
X2388500Y1694720D02*
X2435500Y1694720D01*
X2387500Y1693720D02*
X2435500Y1693720D01*
X2387500Y1692720D02*
X2435500Y1692720D01*
X2387500Y1691720D02*
X2435500Y1691720D01*
X2387500Y1690720D02*
X2434500Y1690720D01*
X2387500Y1689720D02*
X2434500Y1689720D01*
X2387500Y1688720D02*
X2434500Y1688720D01*
X2387500Y1687720D02*
X2434500Y1687720D01*
X2387500Y1686720D02*
X2434500Y1686720D01*
X2387500Y1685720D02*
X2434500Y1685720D01*
X2387500Y1684720D02*
X2434500Y1684720D01*
X2387500Y1683720D02*
X2434500Y1683720D01*
X2387500Y1682720D02*
X2434500Y1682720D01*
X2387500Y1681720D02*
X2434500Y1681720D01*
X2387500Y1680720D02*
X2434500Y1680720D01*
X2387500Y1679720D02*
X2434500Y1679720D01*
X2387500Y1678720D02*
X2434500Y1678720D01*
X2387500Y1677720D02*
X2434500Y1677720D01*
X2387500Y1676720D02*
X2434500Y1676720D01*
X2387500Y1675720D02*
X2434500Y1675720D01*
X2387500Y1674720D02*
X2434500Y1674720D01*
X2387500Y1673720D02*
X2434500Y1673720D01*
X2387500Y1672720D02*
X2434500Y1672720D01*
X2387500Y1671720D02*
X2434500Y1671720D01*
X2387500Y1670720D02*
X2434500Y1670720D01*
X2387500Y1669720D02*
X2434500Y1669720D01*
X2387500Y1668720D02*
X2435500Y1668720D01*
X2387500Y1667720D02*
X2435500Y1667720D01*
X2388500Y1666720D02*
X2435500Y1666720D01*
X2388500Y1665720D02*
X2435500Y1665720D01*
X2388500Y1664720D02*
X2435500Y1664720D01*
X2388500Y1663720D02*
X2436500Y1663720D01*
X2388500Y1662720D02*
X2436500Y1662720D01*
X2388500Y1661720D02*
X2436500Y1661720D01*
X2388500Y1660720D02*
X2436500Y1660720D01*
X2389500Y1659720D02*
X2436500Y1659720D01*
X2389500Y1658720D02*
X2437500Y1658720D01*
X2389500Y1657720D02*
X2437500Y1657720D01*
X2389500Y1656720D02*
X2437500Y1656720D01*
X2389500Y1655720D02*
X2438500Y1655720D01*
X2390500Y1654720D02*
X2438500Y1654720D01*
X2390500Y1653720D02*
X2438500Y1653720D01*
X2390500Y1652720D02*
X2439500Y1652720D01*
X2390500Y1651720D02*
X2439500Y1651720D01*
X2390500Y1650720D02*
X2439500Y1650720D01*
X2391500Y1649720D02*
X2440500Y1649720D01*
X2391500Y1648720D02*
X2440500Y1648720D01*
X2391500Y1647720D02*
X2440500Y1647720D01*
X2392500Y1646720D02*
X2441500Y1646720D01*
X2392500Y1645720D02*
X2441500Y1645720D01*
X2392500Y1644720D02*
X2442500Y1644720D01*
X2392500Y1643720D02*
X2442500Y1643720D01*
X2393500Y1642720D02*
X2442500Y1642720D01*
X2393500Y1641720D02*
X2443500Y1641720D01*
X2393500Y1640720D02*
X2443500Y1640720D01*
X2394500Y1639720D02*
X2444500Y1639720D01*
X2394500Y1638720D02*
X2444500Y1638720D01*
X2394500Y1637720D02*
X2445500Y1637720D01*
X2395500Y1636720D02*
X2445500Y1636720D01*
X2395500Y1635720D02*
X2446500Y1635720D01*
X2395500Y1634720D02*
X2446500Y1634720D01*
X2396500Y1633720D02*
X2447500Y1633720D01*
X2396500Y1632720D02*
X2447500Y1632720D01*
X2396500Y1631720D02*
X2447500Y1631720D01*
X2397500Y1630720D02*
X2448500Y1630720D01*
X2397500Y1629720D02*
X2448500Y1629720D01*
X2397500Y1628720D02*
X2449500Y1628720D01*
X2398500Y1627720D02*
X2449500Y1627720D01*
X2398500Y1626720D02*
X2450500Y1626720D01*
X2399500Y1625720D02*
X2450500Y1625720D01*
X2399500Y1624720D02*
X2451500Y1624720D01*
X2399500Y1623720D02*
X2452500Y1623720D01*
X2400500Y1622720D02*
X2452500Y1622720D01*
X2400500Y1621720D02*
X2453500Y1621720D01*
X2401500Y1620720D02*
X2453500Y1620720D01*
X2401500Y1619720D02*
X2454500Y1619720D01*
X2402500Y1618720D02*
X2454500Y1618720D01*
X2402500Y1617720D02*
X2455500Y1617720D01*
X2402500Y1616720D02*
X2455500Y1616720D01*
X2403500Y1615720D02*
X2456500Y1615720D01*
X2403500Y1614720D02*
X2456500Y1614720D01*
X2404500Y1613720D02*
X2457500Y1613720D01*
X2404500Y1612720D02*
X2458500Y1612720D01*
X2405500Y1611720D02*
X2458500Y1611720D01*
X2405500Y1610720D02*
X2459500Y1610720D01*
X2406500Y1609720D02*
X2460500Y1609720D01*
X2406500Y1608720D02*
X2460500Y1608720D01*
X2407500Y1607720D02*
X2461500Y1607720D01*
X2407500Y1606720D02*
X2461500Y1606720D01*
X2408500Y1605720D02*
X2462500Y1605720D01*
X2408500Y1604720D02*
X2463500Y1604720D01*
X2409500Y1603720D02*
X2463500Y1603720D01*
X2409500Y1602720D02*
X2464500Y1602720D01*
X2410500Y1601720D02*
X2464500Y1601720D01*
X2410500Y1600720D02*
X2465500Y1600720D01*
X2411500Y1599720D02*
X2466500Y1599720D01*
X2412500Y1598720D02*
X2466500Y1598720D01*
X2412500Y1597720D02*
X2467500Y1597720D01*
X2413500Y1596720D02*
X2468500Y1596720D01*
X2413500Y1595720D02*
X2468500Y1595720D01*
X2414500Y1594720D02*
X2469500Y1594720D01*
X2414500Y1593720D02*
X2470500Y1593720D01*
X2415500Y1592720D02*
X2470500Y1592720D01*
X2415500Y1591720D02*
X2471500Y1591720D01*
X2416500Y1590720D02*
X2472500Y1590720D01*
X2417500Y1589720D02*
X2472500Y1589720D01*
X2417500Y1588720D02*
X2473500Y1588720D01*
X2418500Y1587720D02*
X2474500Y1587720D01*
X2418500Y1586720D02*
X2474500Y1586720D01*
X2419500Y1585720D02*
X2475500Y1585720D01*
X2420500Y1584720D02*
X2476500Y1584720D01*
X2420500Y1583720D02*
X2477500Y1583720D01*
X2421500Y1582720D02*
X2477500Y1582720D01*
X2421500Y1581720D02*
X2478500Y1581720D01*
X2422500Y1580720D02*
X2479500Y1580720D01*
X2423500Y1579720D02*
X2479500Y1579720D01*
X2423500Y1578720D02*
X2480500Y1578720D01*
X2424500Y1577720D02*
X2481500Y1577720D01*
X2425500Y1576720D02*
X2482500Y1576720D01*
X2425500Y1575720D02*
X2482500Y1575720D01*
X2426500Y1574720D02*
X2483500Y1574720D01*
X2427500Y1573720D02*
X2484500Y1573720D01*
X2427500Y1572720D02*
X2485500Y1572720D01*
X2428500Y1571720D02*
X2485500Y1571720D01*
X2428500Y1570720D02*
X2486500Y1570720D01*
X2429500Y1569720D02*
X2487500Y1569720D01*
X2430500Y1568720D02*
X2488500Y1568720D01*
X2430500Y1567720D02*
X2488500Y1567720D01*
X2431500Y1566720D02*
X2489500Y1566720D01*
X2432500Y1565720D02*
X2490500Y1565720D01*
X2432500Y1564720D02*
X2491500Y1564720D01*
X2433500Y1563720D02*
X2491500Y1563720D01*
X2434500Y1562720D02*
X2492500Y1562720D01*
X2435500Y1561720D02*
X2493500Y1561720D01*
X2435500Y1560720D02*
X2494500Y1560720D01*
X2436500Y1559720D02*
X2494500Y1559720D01*
X2437500Y1558720D02*
X2495500Y1558720D01*
X2437500Y1557720D02*
X2496500Y1557720D01*
X2438500Y1556720D02*
X2497500Y1556720D01*
X2439500Y1555720D02*
X2498500Y1555720D01*
X2439500Y1554720D02*
X2498500Y1554720D01*
X2440500Y1553720D02*
X2499500Y1553720D01*
X2441500Y1552720D02*
X2500500Y1552720D01*
X2442500Y1551720D02*
X2501500Y1551720D01*
X2442500Y1550720D02*
X2501500Y1550720D01*
X2443500Y1549720D02*
X2502500Y1549720D01*
X2444500Y1548720D02*
X2503500Y1548720D01*
X2444500Y1547720D02*
X2504500Y1547720D01*
X2445500Y1546720D02*
X2505500Y1546720D01*
X2446500Y1545720D02*
X2505500Y1545720D01*
X2447500Y1544720D02*
X2506500Y1544720D01*
X2447500Y1543720D02*
X2507500Y1543720D01*
X2448500Y1542720D02*
X2508500Y1542720D01*
X2449500Y1541720D02*
X2509500Y1541720D01*
X2450500Y1540720D02*
X2510500Y1540720D01*
X2450500Y1539720D02*
X2510500Y1539720D01*
X2451500Y1538720D02*
X2511500Y1538720D01*
X2452500Y1537720D02*
X2512500Y1537720D01*
X2453500Y1536720D02*
X2513500Y1536720D01*
X2453500Y1535720D02*
X2514500Y1535720D01*
X2454500Y1534720D02*
X2514500Y1534720D01*
X2455500Y1533720D02*
X2515500Y1533720D01*
X2456500Y1532720D02*
X2516500Y1532720D01*
X2456500Y1531720D02*
X2517500Y1531720D01*
X2457500Y1530720D02*
X2518500Y1530720D01*
X2458500Y1529720D02*
X2519500Y1529720D01*
X2459500Y1528720D02*
X2519500Y1528720D01*
X2460500Y1527720D02*
X2520500Y1527720D01*
X2460500Y1526720D02*
X2521500Y1526720D01*
X2461500Y1525720D02*
X2522500Y1525720D01*
X2462500Y1524720D02*
X2523500Y1524720D01*
X2463500Y1523720D02*
X2524500Y1523720D01*
X2463500Y1522720D02*
X2524500Y1522720D01*
X2464500Y1521720D02*
X2525500Y1521720D01*
X2465500Y1520720D02*
X2526500Y1520720D01*
X2466500Y1519720D02*
X2527500Y1519720D01*
X2467500Y1518720D02*
X2528500Y1518720D01*
X2467500Y1517720D02*
X2529500Y1517720D01*
X2468500Y1516720D02*
X2530500Y1516720D01*
X2469500Y1515720D02*
X2530500Y1515720D01*
X2470500Y1514720D02*
X2531500Y1514720D01*
X2471500Y1513720D02*
X2532500Y1513720D01*
X2471500Y1512720D02*
X2533500Y1512720D01*
X2472500Y1511720D02*
X2534500Y1511720D01*
X2473500Y1510720D02*
X2535500Y1510720D01*
X2474500Y1509720D02*
X2535500Y1509720D01*
X2475500Y1508720D02*
X2536500Y1508720D01*
X2476500Y1507720D02*
X2537500Y1507720D01*
X2476500Y1506720D02*
X2538500Y1506720D01*
X2477500Y1505720D02*
X2539500Y1505720D01*
X2478500Y1504720D02*
X2540500Y1504720D01*
X2479500Y1503720D02*
X2541500Y1503720D01*
X2480500Y1502720D02*
X2541500Y1502720D01*
X2480500Y1501720D02*
X2542500Y1501720D01*
X2481500Y1500720D02*
X2543500Y1500720D01*
X2482500Y1499720D02*
X2544500Y1499720D01*
X2483500Y1498720D02*
X2545500Y1498720D01*
X2484500Y1497720D02*
X2546500Y1497720D01*
X2485500Y1496720D02*
X2547500Y1496720D01*
X2486500Y1495720D02*
X2547500Y1495720D01*
X2486500Y1494720D02*
X2548500Y1494720D01*
X2487500Y1493720D02*
X2549500Y1493720D01*
X2488500Y1492720D02*
X2550500Y1492720D01*
X2489500Y1491720D02*
X2551500Y1491720D01*
X2490500Y1490720D02*
X2552500Y1490720D01*
X2491500Y1489720D02*
X2553500Y1489720D01*
X2491500Y1488720D02*
X2554500Y1488720D01*
X2492500Y1487720D02*
X2554500Y1487720D01*
X2493500Y1486720D02*
X2555500Y1486720D01*
X2494500Y1485720D02*
X2556500Y1485720D01*
X2495500Y1484720D02*
X2557500Y1484720D01*
X2496500Y1483720D02*
X2558500Y1483720D01*
X2496500Y1482720D02*
X2559500Y1482720D01*
X2497500Y1481720D02*
X2560500Y1481720D01*
X2498500Y1480720D02*
X2560500Y1480720D01*
X2499500Y1479720D02*
X2561500Y1479720D01*
X2500500Y1478720D02*
X2562500Y1478720D01*
X2501500Y1477720D02*
X2563500Y1477720D01*
X2501500Y1476720D02*
X2564500Y1476720D01*
X2502500Y1475720D02*
X2565500Y1475720D01*
X2503500Y1474720D02*
X2566500Y1474720D01*
X2504500Y1473720D02*
X2567500Y1473720D01*
X2505500Y1472720D02*
X2567500Y1472720D01*
X2506500Y1471720D02*
X2568500Y1471720D01*
X2507500Y1470720D02*
X2569500Y1470720D01*
X2507500Y1469720D02*
X2570500Y1469720D01*
X2508500Y1468720D02*
X2571500Y1468720D01*
X2509500Y1467720D02*
X2572500Y1467720D01*
X2510500Y1466720D02*
X2573500Y1466720D01*
X2511500Y1465720D02*
X2574500Y1465720D01*
X2512500Y1464720D02*
X2574500Y1464720D01*
X2513500Y1463720D02*
X2575500Y1463720D01*
X2514500Y1462720D02*
X2576500Y1462720D01*
X2514500Y1461720D02*
X2577500Y1461720D01*
X2515500Y1460720D02*
X2578500Y1460720D01*
X2516500Y1459720D02*
X2579500Y1459720D01*
X2517500Y1458720D02*
X2580500Y1458720D01*
X2518500Y1457720D02*
X2580500Y1457720D01*
X2519500Y1456720D02*
X2581500Y1456720D01*
X2520500Y1455720D02*
X2582500Y1455720D01*
X2520500Y1454720D02*
X2583500Y1454720D01*
X2521500Y1453720D02*
X2584500Y1453720D01*
X2522500Y1452720D02*
X2585500Y1452720D01*
X2523500Y1451720D02*
X2586500Y1451720D01*
X2524500Y1450720D02*
X2587500Y1450720D01*
X2525500Y1449720D02*
X2587500Y1449720D01*
X2526500Y1448720D02*
X2588500Y1448720D01*
X2527500Y1447720D02*
X2589500Y1447720D01*
X2527500Y1446720D02*
X2590500Y1446720D01*
X2528500Y1445720D02*
X2591500Y1445720D01*
X2529500Y1444720D02*
X2592500Y1444720D01*
X2530500Y1443720D02*
X2593500Y1443720D01*
X2531500Y1442720D02*
X2593500Y1442720D01*
X2532500Y1441720D02*
X2594500Y1441720D01*
X2533500Y1440720D02*
X2595500Y1440720D01*
X2533500Y1439720D02*
X2596500Y1439720D01*
X2534500Y1438720D02*
X2597500Y1438720D01*
X2535500Y1437720D02*
X2598500Y1437720D01*
X2536500Y1436720D02*
X2599500Y1436720D01*
X2537500Y1435720D02*
X2599500Y1435720D01*
X2538500Y1434720D02*
X2600500Y1434720D01*
X2539500Y1433720D02*
X2601500Y1433720D01*
X2540500Y1432720D02*
X2602500Y1432720D01*
X2540500Y1431720D02*
X2603500Y1431720D01*
X2541500Y1430720D02*
X2604500Y1430720D01*
X2542500Y1429720D02*
X2605500Y1429720D01*
X2543500Y1428720D02*
X2605500Y1428720D01*
X2544500Y1427720D02*
X2606500Y1427720D01*
X2545500Y1426720D02*
X2607500Y1426720D01*
X2546500Y1425720D02*
X2608500Y1425720D01*
X2547500Y1424720D02*
X2609500Y1424720D01*
X2547500Y1423720D02*
X2610500Y1423720D01*
X2548500Y1422720D02*
X2611500Y1422720D01*
X2549500Y1421720D02*
X2611500Y1421720D01*
X2550500Y1420720D02*
X2612500Y1420720D01*
X2551500Y1419720D02*
X2613500Y1419720D01*
X2552500Y1418720D02*
X2614500Y1418720D01*
X2553500Y1417720D02*
X2615500Y1417720D01*
X2554500Y1416720D02*
X2616500Y1416720D01*
X2554500Y1415720D02*
X2617500Y1415720D01*
X2555500Y1414720D02*
X2617500Y1414720D01*
X2556500Y1413720D02*
X2618500Y1413720D01*
X2557500Y1412720D02*
X2619500Y1412720D01*
X2558500Y1411720D02*
X2620500Y1411720D01*
X2559500Y1410720D02*
X2621500Y1410720D01*
X2560500Y1409720D02*
X2622500Y1409720D01*
X2560500Y1408720D02*
X2622500Y1408720D01*
X2561500Y1407720D02*
X2623500Y1407720D01*
X2562500Y1406720D02*
X2624500Y1406720D01*
X2563500Y1405720D02*
X2625500Y1405720D01*
X2564500Y1404720D02*
X2626500Y1404720D01*
X2565500Y1403720D02*
X2627500Y1403720D01*
X2566500Y1402720D02*
X2627500Y1402720D01*
X2566500Y1401720D02*
X2628500Y1401720D01*
X2567500Y1400720D02*
X2629500Y1400720D01*
X2568500Y1399720D02*
X2630500Y1399720D01*
X2569500Y1398720D02*
X2631500Y1398720D01*
X2570500Y1397720D02*
X2631500Y1397720D01*
X2571500Y1396720D02*
X2632500Y1396720D01*
X2572500Y1395720D02*
X2633500Y1395720D01*
X2572500Y1394720D02*
X2634500Y1394720D01*
X2573500Y1393720D02*
X2635500Y1393720D01*
X2574500Y1392720D02*
X2636500Y1392720D01*
X2575500Y1391720D02*
X2636500Y1391720D01*
X2576500Y1390720D02*
X2637500Y1390720D01*
X2577500Y1389720D02*
X2638500Y1389720D01*
X2578500Y1388720D02*
X2639500Y1388720D01*
X2578500Y1387720D02*
X2640500Y1387720D01*
X2579500Y1386720D02*
X2641500Y1386720D01*
X2580500Y1385720D02*
X2641500Y1385720D01*
X2581500Y1384720D02*
X2642500Y1384720D01*
X2582500Y1383720D02*
X2643500Y1383720D01*
X2583500Y1382720D02*
X2644500Y1382720D01*
X2583500Y1381720D02*
X2645500Y1381720D01*
X2584500Y1380720D02*
X2645500Y1380720D01*
X2585500Y1379720D02*
X2646500Y1379720D01*
X2586500Y1378720D02*
X2647500Y1378720D01*
X2587500Y1377720D02*
X2648500Y1377720D01*
X2588500Y1376720D02*
X2648500Y1376720D01*
X2588500Y1375720D02*
X2649500Y1375720D01*
X2589500Y1374720D02*
X2650500Y1374720D01*
X2590500Y1373720D02*
X2651500Y1373720D01*
X2591500Y1372720D02*
X2652500Y1372720D01*
X2592500Y1371720D02*
X2652500Y1371720D01*
X2593500Y1370720D02*
X2653500Y1370720D01*
X2593500Y1369720D02*
X2654500Y1369720D01*
X2594500Y1368720D02*
X2655500Y1368720D01*
X2595500Y1367720D02*
X2656500Y1367720D01*
X2596500Y1366720D02*
X2656500Y1366720D01*
X2597500Y1365720D02*
X2657500Y1365720D01*
X2597500Y1364720D02*
X2658500Y1364720D01*
X2598500Y1363720D02*
X2659500Y1363720D01*
X2599500Y1362720D02*
X2659500Y1362720D01*
X2600500Y1361720D02*
X2660500Y1361720D01*
X2601500Y1360720D02*
X2661500Y1360720D01*
X2602500Y1359720D02*
X2662500Y1359720D01*
X2602500Y1358720D02*
X2662500Y1358720D01*
X2603500Y1357720D02*
X2663500Y1357720D01*
X2604500Y1356720D02*
X2664500Y1356720D01*
X2605500Y1355720D02*
X2665500Y1355720D01*
X2606500Y1354720D02*
X2665500Y1354720D01*
X2607500Y1353720D02*
X2666500Y1353720D01*
X2607500Y1352720D02*
X2667500Y1352720D01*
X2608500Y1351720D02*
X2668500Y1351720D01*
X2609500Y1350720D02*
X2668500Y1350720D01*
X2610500Y1349720D02*
X2669500Y1349720D01*
X2610500Y1348720D02*
X2670500Y1348720D01*
X2611500Y1347720D02*
X2670500Y1347720D01*
X2612500Y1346720D02*
X2671500Y1346720D01*
X2613500Y1345720D02*
X2672500Y1345720D01*
X2614500Y1344720D02*
X2673500Y1344720D01*
X2614500Y1343720D02*
X2673500Y1343720D01*
X2615500Y1342720D02*
X2674500Y1342720D01*
X2616500Y1341720D02*
X2675500Y1341720D01*
X2617500Y1340720D02*
X2676500Y1340720D01*
X2618500Y1339720D02*
X2676500Y1339720D01*
X2618500Y1338720D02*
X2677500Y1338720D01*
X2619500Y1337720D02*
X2678500Y1337720D01*
X2620500Y1336720D02*
X2678500Y1336720D01*
X2621500Y1335720D02*
X2679500Y1335720D01*
X2621500Y1334720D02*
X2680500Y1334720D01*
X2622500Y1333720D02*
X2680500Y1333720D01*
X2623500Y1332720D02*
X2681500Y1332720D01*
X2624500Y1331720D02*
X2682500Y1331720D01*
X2624500Y1330720D02*
X2682500Y1330720D01*
X2625500Y1329720D02*
X2683500Y1329720D01*
X2626500Y1328720D02*
X2684500Y1328720D01*
X2627500Y1327720D02*
X2684500Y1327720D01*
X2627500Y1326720D02*
X2685500Y1326720D01*
X2628500Y1325720D02*
X2686500Y1325720D01*
X2629500Y1324720D02*
X2687500Y1324720D01*
X2630500Y1323720D02*
X2687500Y1323720D01*
X2630500Y1322720D02*
X2688500Y1322720D01*
X2631500Y1321720D02*
X2689500Y1321720D01*
X2632500Y1320720D02*
X2689500Y1320720D01*
X2633500Y1319720D02*
X2690500Y1319720D01*
X2633500Y1318720D02*
X2690500Y1318720D01*
X2634500Y1317720D02*
X2691500Y1317720D01*
X2635500Y1316720D02*
X2692500Y1316720D01*
X2635500Y1315720D02*
X2692500Y1315720D01*
X2636500Y1314720D02*
X2693500Y1314720D01*
X2637500Y1313720D02*
X2694500Y1313720D01*
X2638500Y1312720D02*
X2694500Y1312720D01*
X2638500Y1311720D02*
X2695500Y1311720D01*
X2639500Y1310720D02*
X2696500Y1310720D01*
X2640500Y1309720D02*
X2696500Y1309720D01*
X2640500Y1308720D02*
X2697500Y1308720D01*
X2641500Y1307720D02*
X2697500Y1307720D01*
X2642500Y1306720D02*
X2698500Y1306720D01*
X2642500Y1305720D02*
X2699500Y1305720D01*
X2643500Y1304720D02*
X2699500Y1304720D01*
X2644500Y1303720D02*
X2700500Y1303720D01*
X2645500Y1302720D02*
X2700500Y1302720D01*
X2645500Y1301720D02*
X2701500Y1301720D01*
X2646500Y1300720D02*
X2702500Y1300720D01*
X2647500Y1299720D02*
X2702500Y1299720D01*
X2647500Y1298720D02*
X2703500Y1298720D01*
X2648500Y1297720D02*
X2703500Y1297720D01*
X2649500Y1296720D02*
X2704500Y1296720D01*
X2649500Y1295720D02*
X2705500Y1295720D01*
X2650500Y1294720D02*
X2705500Y1294720D01*
X2651500Y1293720D02*
X2706500Y1293720D01*
X2651500Y1292720D02*
X2706500Y1292720D01*
X2652500Y1291720D02*
X2707500Y1291720D01*
X2652500Y1290720D02*
X2707500Y1290720D01*
X2653500Y1289720D02*
X2708500Y1289720D01*
X2654500Y1288720D02*
X2708500Y1288720D01*
X2654500Y1287720D02*
X2709500Y1287720D01*
X2655500Y1286720D02*
X2709500Y1286720D01*
X2656500Y1285720D02*
X2710500Y1285720D01*
X2656500Y1284720D02*
X2711500Y1284720D01*
X2657500Y1283720D02*
X2711500Y1283720D01*
X2657500Y1282720D02*
X2712500Y1282720D01*
X2658500Y1281720D02*
X2712500Y1281720D01*
X2659500Y1280720D02*
X2713500Y1280720D01*
X2659500Y1279720D02*
X2713500Y1279720D01*
X2660500Y1278720D02*
X2714500Y1278720D01*
X2660500Y1277720D02*
X2714500Y1277720D01*
X2661500Y1276720D02*
X2715500Y1276720D01*
X2662500Y1275720D02*
X2715500Y1275720D01*
X2662500Y1274720D02*
X2716500Y1274720D01*
X2663500Y1273720D02*
X2716500Y1273720D01*
X2663500Y1272720D02*
X2717500Y1272720D01*
X2664500Y1271720D02*
X2717500Y1271720D01*
X2665500Y1270720D02*
X2718500Y1270720D01*
X2665500Y1269720D02*
X2718500Y1269720D01*
X2666500Y1268720D02*
X2718500Y1268720D01*
X2666500Y1267720D02*
X2719500Y1267720D01*
X2667500Y1266720D02*
X2719500Y1266720D01*
X2667500Y1265720D02*
X2720500Y1265720D01*
X2668500Y1264720D02*
X2720500Y1264720D01*
X2668500Y1263720D02*
X2721500Y1263720D01*
X2669500Y1262720D02*
X2721500Y1262720D01*
X2669500Y1261720D02*
X2722500Y1261720D01*
X2670500Y1260720D02*
X2722500Y1260720D01*
X2670500Y1259720D02*
X2723500Y1259720D01*
X2671500Y1258720D02*
X2723500Y1258720D01*
X2672500Y1257720D02*
X2723500Y1257720D01*
X2672500Y1256720D02*
X2724500Y1256720D01*
X2673500Y1255720D02*
X2724500Y1255720D01*
X2673500Y1254720D02*
X2725500Y1254720D01*
X2674500Y1253720D02*
X2725500Y1253720D01*
X2674500Y1252720D02*
X2725500Y1252720D01*
X2675500Y1251720D02*
X2726500Y1251720D01*
X2675500Y1250720D02*
X2726500Y1250720D01*
X2675500Y1249720D02*
X2727500Y1249720D01*
X2676500Y1248720D02*
X2727500Y1248720D01*
X2676500Y1247720D02*
X2727500Y1247720D01*
X2677500Y1246720D02*
X2728500Y1246720D01*
X2677500Y1245720D02*
X2728500Y1245720D01*
X2678500Y1244720D02*
X2729500Y1244720D01*
X2678500Y1243720D02*
X2729500Y1243720D01*
X2679500Y1242720D02*
X2729500Y1242720D01*
X2679500Y1241720D02*
X2730500Y1241720D01*
X2680500Y1240720D02*
X2730500Y1240720D01*
X2680500Y1239720D02*
X2730500Y1239720D01*
X2680500Y1238720D02*
X2731500Y1238720D01*
X2681500Y1237720D02*
X2731500Y1237720D01*
X2681500Y1236720D02*
X2731500Y1236720D01*
X2682500Y1235720D02*
X2732500Y1235720D01*
X2682500Y1234720D02*
X2732500Y1234720D01*
X2682500Y1233720D02*
X2732500Y1233720D01*
X2683500Y1232720D02*
X2732500Y1232720D01*
X2683500Y1231720D02*
X2733500Y1231720D01*
X2684500Y1230720D02*
X2733500Y1230720D01*
X2684500Y1229720D02*
X2733500Y1229720D01*
X2684500Y1228720D02*
X2734500Y1228720D01*
X2685500Y1227720D02*
X2734500Y1227720D01*
X2685500Y1226720D02*
X2734500Y1226720D01*
X2685500Y1225720D02*
X2734500Y1225720D01*
X2686500Y1224720D02*
X2735500Y1224720D01*
X2686500Y1223720D02*
X2735500Y1223720D01*
X2686500Y1222720D02*
X2735500Y1222720D01*
X2687500Y1221720D02*
X2735500Y1221720D01*
X2687500Y1220720D02*
X2736500Y1220720D01*
X2687500Y1219720D02*
X2736500Y1219720D01*
X2688500Y1218720D02*
X2736500Y1218720D01*
X2688500Y1217720D02*
X2736500Y1217720D01*
X2688500Y1216720D02*
X2736500Y1216720D01*
X2688500Y1215720D02*
X2737500Y1215720D01*
X2689500Y1214720D02*
X2737500Y1214720D01*
X2689500Y1213720D02*
X2737500Y1213720D01*
X2689500Y1212720D02*
X2737500Y1212720D01*
X2689500Y1211720D02*
X2737500Y1211720D01*
X2690500Y1210720D02*
X2738500Y1210720D01*
X2690500Y1209720D02*
X2738500Y1209720D01*
X2690500Y1208720D02*
X2738500Y1208720D01*
X2690500Y1207720D02*
X2738500Y1207720D01*
X2691500Y1206720D02*
X2738500Y1206720D01*
X2691500Y1205720D02*
X2738500Y1205720D01*
X2691500Y1204720D02*
X2739500Y1204720D01*
X2691500Y1203720D02*
X2739500Y1203720D01*
X2691500Y1202720D02*
X2739500Y1202720D01*
X2692500Y1201720D02*
X2739500Y1201720D01*
X2692500Y1200720D02*
X2739500Y1200720D01*
X2692500Y1199720D02*
X2739500Y1199720D01*
X2692500Y1198720D02*
X2739500Y1198720D01*
X2692500Y1197720D02*
X2739500Y1197720D01*
X2692500Y1196720D02*
X2739500Y1196720D01*
X2692500Y1195720D02*
X2739500Y1195720D01*
X2693500Y1194720D02*
X2740500Y1194720D01*
X2693500Y1193720D02*
X2740500Y1193720D01*
X2693500Y1192720D02*
X2740500Y1192720D01*
X2693500Y1191720D02*
X2740500Y1191720D01*
X2693500Y1190720D02*
X2740500Y1190720D01*
X2693500Y1189720D02*
X2740500Y1189720D01*
X2693500Y1188720D02*
X2740500Y1188720D01*
X2693500Y1187720D02*
X2740500Y1187720D01*
X2693500Y1186720D02*
X2740500Y1186720D01*
X2693500Y1185720D02*
X2740500Y1185720D01*
X2693500Y1184720D02*
X2740500Y1184720D01*
X2693500Y1183720D02*
X2740500Y1183720D01*
X2693500Y1182720D02*
X2740500Y1182720D01*
X2693500Y1181720D02*
X2740500Y1181720D01*
X2693500Y1180720D02*
X2740500Y1180720D01*
X2693500Y1179720D02*
X2740500Y1179720D01*
X2693500Y1178720D02*
X2740500Y1178720D01*
X2693500Y1177720D02*
X2740500Y1177720D01*
X2693500Y1176720D02*
X2740500Y1176720D01*
X2693500Y1175720D02*
X2740500Y1175720D01*
X2693500Y1174720D02*
X2740500Y1174720D01*
X2693500Y1173720D02*
X2740500Y1173720D01*
X2693500Y1172720D02*
X2740500Y1172720D01*
X2692500Y1171720D02*
X2740500Y1171720D01*
X2692500Y1170720D02*
X2740500Y1170720D01*
X2692500Y1169720D02*
X2739500Y1169720D01*
X2692500Y1168720D02*
X2739500Y1168720D01*
X2692500Y1167720D02*
X2739500Y1167720D01*
X2692500Y1166720D02*
X2739500Y1166720D01*
X2691500Y1165720D02*
X2739500Y1165720D01*
X2691500Y1164720D02*
X2739500Y1164720D01*
X2691500Y1163720D02*
X2739500Y1163720D01*
X2691500Y1162720D02*
X2739500Y1162720D01*
X2691500Y1161720D02*
X2738500Y1161720D01*
X2690500Y1160720D02*
X2738500Y1160720D01*
X2690500Y1159720D02*
X2738500Y1159720D01*
X2690500Y1158720D02*
X2738500Y1158720D01*
X2690500Y1157720D02*
X2738500Y1157720D01*
X2689500Y1156720D02*
X2738500Y1156720D01*
X2689500Y1155720D02*
X2737500Y1155720D01*
X2689500Y1154720D02*
X2737500Y1154720D01*
X2688500Y1153720D02*
X2737500Y1153720D01*
X2688500Y1152720D02*
X2737500Y1152720D01*
X2688500Y1151720D02*
X2736500Y1151720D01*
X2687500Y1150720D02*
X2736500Y1150720D01*
X2687500Y1149720D02*
X2736500Y1149720D01*
X2686500Y1148720D02*
X2736500Y1148720D01*
X2686500Y1147720D02*
X2735500Y1147720D01*
X2685500Y1146720D02*
X2735500Y1146720D01*
X2685500Y1145720D02*
X2735500Y1145720D01*
X2684500Y1144720D02*
X2734500Y1144720D01*
X2684500Y1143720D02*
X2734500Y1143720D01*
X2683500Y1142720D02*
X2734500Y1142720D01*
X2683500Y1141720D02*
X2734500Y1141720D01*
X2682500Y1140720D02*
X2733500Y1140720D01*
X2682500Y1139720D02*
X2733500Y1139720D01*
X2681500Y1138720D02*
X2733500Y1138720D01*
X2680500Y1137720D02*
X2732500Y1137720D01*
X2680500Y1136720D02*
X2732500Y1136720D01*
X2679500Y1135720D02*
X2731500Y1135720D01*
X2678500Y1134720D02*
X2731500Y1134720D01*
X2678500Y1133720D02*
X2731500Y1133720D01*
X2677500Y1132720D02*
X2730500Y1132720D01*
X2676500Y1131720D02*
X2730500Y1131720D01*
X2676500Y1130720D02*
X2729500Y1130720D01*
X2675500Y1129720D02*
X2729500Y1129720D01*
X2674500Y1128720D02*
X2728500Y1128720D01*
X2673500Y1127720D02*
X2728500Y1127720D01*
X2672500Y1126720D02*
X2728500Y1126720D01*
X2672500Y1125720D02*
X2727500Y1125720D01*
X2671500Y1124720D02*
X2727500Y1124720D01*
X2670500Y1123720D02*
X2726500Y1123720D01*
X2669500Y1122720D02*
X2726500Y1122720D01*
X2668500Y1121720D02*
X2725500Y1121720D01*
X2667500Y1120720D02*
X2725500Y1120720D01*
X2666500Y1119720D02*
X2724500Y1119720D01*
X2665500Y1118720D02*
X2724500Y1118720D01*
X2664500Y1117720D02*
X2723500Y1117720D01*
X2663500Y1116720D02*
X2722500Y1116720D01*
X2662500Y1115720D02*
X2722500Y1115720D01*
X2661500Y1114720D02*
X2721500Y1114720D01*
X2660500Y1113720D02*
X2721500Y1113720D01*
X2659500Y1112720D02*
X2720500Y1112720D01*
X2658500Y1111720D02*
X2720500Y1111720D01*
X2657500Y1110720D02*
X2719500Y1110720D01*
X2656500Y1109720D02*
X2718500Y1109720D01*
X2655500Y1108720D02*
X2718500Y1108720D01*
X2653500Y1107720D02*
X2717500Y1107720D01*
X2652500Y1106720D02*
X2716500Y1106720D01*
X2651500Y1105720D02*
X2716500Y1105720D01*
X2650500Y1104720D02*
X2715500Y1104720D01*
X2648500Y1103720D02*
X2714500Y1103720D01*
X2647500Y1102720D02*
X2713500Y1102720D01*
X2646500Y1101720D02*
X2713500Y1101720D01*
X2644500Y1100720D02*
X2712500Y1100720D01*
X2643500Y1099720D02*
X2711500Y1099720D01*
X2641500Y1098720D02*
X2710500Y1098720D01*
X2640500Y1097720D02*
X2710500Y1097720D01*
X2638500Y1096720D02*
X2709500Y1096720D01*
X2637500Y1095720D02*
X2708500Y1095720D01*
X2635500Y1094720D02*
X2707500Y1094720D01*
X2634500Y1093720D02*
X2706500Y1093720D01*
X2632500Y1092720D02*
X2705500Y1092720D01*
X2630500Y1091720D02*
X2705500Y1091720D01*
X2629500Y1090720D02*
X2704500Y1090720D01*
X2627500Y1089720D02*
X2703500Y1089720D01*
X2625500Y1088720D02*
X2702500Y1088720D01*
X2624500Y1087720D02*
X2701500Y1087720D01*
X2622500Y1086720D02*
X2700500Y1086720D01*
X2620500Y1085720D02*
X2699500Y1085720D01*
X2618500Y1084720D02*
X2698500Y1084720D01*
X2616500Y1083720D02*
X2697500Y1083720D01*
X2615500Y1082720D02*
X2696500Y1082720D01*
X2613500Y1081720D02*
X2695500Y1081720D01*
X2611500Y1080720D02*
X2694500Y1080720D01*
X2609500Y1079720D02*
X2693500Y1079720D01*
X2607500Y1078720D02*
X2692500Y1078720D01*
X2605500Y1077720D02*
X2691500Y1077720D01*
X2603500Y1076720D02*
X2690500Y1076720D01*
X2601500Y1075720D02*
X2688500Y1075720D01*
X2598500Y1074720D02*
X2687500Y1074720D01*
X2596500Y1073720D02*
X2686500Y1073720D01*
X2594500Y1072720D02*
X2685500Y1072720D01*
X2592500Y1071720D02*
X2684500Y1071720D01*
X2589500Y1070720D02*
X2683500Y1070720D01*
X2587500Y1069720D02*
X2681500Y1069720D01*
X2585500Y1068720D02*
X2680500Y1068720D01*
X2582500Y1067720D02*
X2679500Y1067720D01*
X2580500Y1066720D02*
X2678500Y1066720D01*
X2577500Y1065720D02*
X2676500Y1065720D01*
X2575500Y1064720D02*
X2675500Y1064720D01*
X2572500Y1063720D02*
X2674500Y1063720D01*
X2570500Y1062720D02*
X2672500Y1062720D01*
X2567500Y1061720D02*
X2671500Y1061720D01*
X2564500Y1060720D02*
X2670500Y1060720D01*
X2561500Y1059720D02*
X2668500Y1059720D01*
X2558500Y1058720D02*
X2667500Y1058720D01*
X2556500Y1057720D02*
X2665500Y1057720D01*
X2553500Y1056720D02*
X2664500Y1056720D01*
X2550500Y1055720D02*
X2662500Y1055720D01*
X2547500Y1054720D02*
X2661500Y1054720D01*
X2544500Y1053720D02*
X2659500Y1053720D01*
X2540500Y1052720D02*
X2658500Y1052720D01*
X2537500Y1051720D02*
X2656500Y1051720D01*
X2534500Y1050720D02*
X2654500Y1050720D01*
X2531500Y1049720D02*
X2653500Y1049720D01*
X2527500Y1048720D02*
X2651500Y1048720D01*
X2524500Y1047720D02*
X2649500Y1047720D01*
X2520500Y1046720D02*
X2648500Y1046720D01*
X2517500Y1045720D02*
X2646500Y1045720D01*
X2513500Y1044720D02*
X2644500Y1044720D01*
X2510500Y1043720D02*
X2642500Y1043720D01*
X2506500Y1042720D02*
X2641500Y1042720D01*
X2502500Y1041720D02*
X2639500Y1041720D01*
X2498500Y1040720D02*
X2637500Y1040720D01*
X2494500Y1039720D02*
X2635500Y1039720D01*
X2490500Y1038720D02*
X2633500Y1038720D01*
X2486500Y1037720D02*
X2631500Y1037720D01*
X2482500Y1036720D02*
X2629500Y1036720D01*
X2478500Y1035720D02*
X2627500Y1035720D01*
X2473500Y1034720D02*
X2625500Y1034720D01*
X2469500Y1033720D02*
X2623500Y1033720D01*
X2464500Y1032720D02*
X2621500Y1032720D01*
X2460500Y1031720D02*
X2619500Y1031720D01*
X2455500Y1030720D02*
X2616500Y1030720D01*
X2450500Y1029720D02*
X2614500Y1029720D01*
X2445500Y1028720D02*
X2612500Y1028720D01*
X2440500Y1027720D02*
X2610500Y1027720D01*
X2435500Y1026720D02*
X2607500Y1026720D01*
X2430500Y1025720D02*
X2605500Y1025720D01*
X2425500Y1024720D02*
X2603500Y1024720D01*
X2419500Y1023720D02*
X2600500Y1023720D01*
X2414500Y1022720D02*
X2598500Y1022720D01*
X2410500Y1021720D02*
X2595500Y1021720D01*
X2408500Y1020720D02*
X2593500Y1020720D01*
X2406500Y1019720D02*
X2590500Y1019720D01*
X2404500Y1018720D02*
X2588500Y1018720D01*
X2403500Y1017720D02*
X2585500Y1017720D01*
X2402500Y1016720D02*
X2582500Y1016720D01*
X2401500Y1015720D02*
X2580500Y1015720D01*
X2400500Y1014720D02*
X2577500Y1014720D01*
X2399500Y1013720D02*
X2574500Y1013720D01*
X2398500Y1012720D02*
X2571500Y1012720D01*
X2398500Y1011720D02*
X2568500Y1011720D01*
X2397500Y1010720D02*
X2565500Y1010720D01*
X2397500Y1009720D02*
X2562500Y1009720D01*
X2396500Y1008720D02*
X2559500Y1008720D01*
X2396500Y1007720D02*
X2556500Y1007720D01*
X2395500Y1006720D02*
X2553500Y1006720D01*
X2395500Y1005720D02*
X2550500Y1005720D01*
X2395500Y1004720D02*
X2547500Y1004720D01*
X2395500Y1003720D02*
X2543500Y1003720D01*
X2394500Y1002720D02*
X2540500Y1002720D01*
X2394500Y1001720D02*
X2537500Y1001720D01*
X2394500Y1000720D02*
X2533500Y1000720D01*
X2394500Y999720D02*
X2530500Y999720D01*
X2394500Y998720D02*
X2526500Y998720D01*
X2394500Y997720D02*
X2522500Y997720D01*
X2394500Y996720D02*
X2519500Y996720D01*
X2394500Y995720D02*
X2515500Y995720D01*
X2395500Y994720D02*
X2511500Y994720D01*
X2395500Y993720D02*
X2507500Y993720D01*
X2395500Y992720D02*
X2503500Y992720D01*
X2395500Y991720D02*
X2499500Y991720D01*
X2396500Y990720D02*
X2495500Y990720D01*
X2396500Y989720D02*
X2491500Y989720D01*
X2397500Y988720D02*
X2486500Y988720D01*
X2397500Y987720D02*
X2482500Y987720D01*
X2398500Y986720D02*
X2478500Y986720D01*
X2398500Y985720D02*
X2473500Y985720D01*
X2399500Y984720D02*
X2468500Y984720D01*
X2400500Y983720D02*
X2464500Y983720D01*
X2401500Y982720D02*
X2459500Y982720D01*
X2402500Y981720D02*
X2454500Y981720D01*
X2403500Y980720D02*
X2449500Y980720D01*
X2404500Y979720D02*
X2444500Y979720D01*
X2406500Y978720D02*
X2439500Y978720D01*
X2407500Y977720D02*
X2433500Y977720D01*
X2410500Y976720D02*
X2428500Y976720D01*
X2413500Y975720D02*
X2423500Y975720D01*
X2696500Y931720D02*
X2714500Y931720D01*
X2686500Y930720D02*
X2723500Y930720D01*
X2680500Y929720D02*
X2728500Y929720D01*
X2675500Y928720D02*
X2733500Y928720D01*
X2670500Y927720D02*
X2737500Y927720D01*
X2666500Y926720D02*
X2741500Y926720D01*
X2663500Y925720D02*
X2744500Y925720D01*
X2659500Y924720D02*
X2747500Y924720D01*
X2655500Y923720D02*
X2750500Y923720D01*
X2652500Y922720D02*
X2752500Y922720D01*
X2649500Y921720D02*
X2755500Y921720D01*
X2646500Y920720D02*
X2757500Y920720D01*
X2643500Y919720D02*
X2759500Y919720D01*
X2640500Y918720D02*
X2761500Y918720D01*
X2638500Y917720D02*
X2763500Y917720D01*
X2635500Y916720D02*
X2765500Y916720D01*
X2632500Y915720D02*
X2767500Y915720D01*
X2630500Y914720D02*
X2768500Y914720D01*
X2627500Y913720D02*
X2770500Y913720D01*
X2625500Y912720D02*
X2772500Y912720D01*
X2622500Y911720D02*
X2773500Y911720D01*
X2620500Y910720D02*
X2775500Y910720D01*
X2617500Y909720D02*
X2776500Y909720D01*
X2615500Y908720D02*
X2778500Y908720D01*
X2613500Y907720D02*
X2779500Y907720D01*
X2610500Y906720D02*
X2781500Y906720D01*
X2608500Y905720D02*
X2782500Y905720D01*
X2606500Y904720D02*
X2783500Y904720D01*
X2604500Y903720D02*
X2785500Y903720D01*
X2601500Y902720D02*
X2786500Y902720D01*
X2599500Y901720D02*
X2787500Y901720D01*
X2597500Y900720D02*
X2789500Y900720D01*
X2595500Y899720D02*
X2790500Y899720D01*
X2593500Y898720D02*
X2791500Y898720D01*
X2591500Y897720D02*
X2792500Y897720D01*
X2588500Y896720D02*
X2794500Y896720D01*
X2586500Y895720D02*
X2795500Y895720D01*
X2584500Y894720D02*
X2796500Y894720D01*
X2582500Y893720D02*
X2797500Y893720D01*
X2580500Y892720D02*
X2798500Y892720D01*
X2578500Y891720D02*
X2799500Y891720D01*
X2575500Y890720D02*
X2800500Y890720D01*
X2573500Y889720D02*
X2801500Y889720D01*
X2571500Y888720D02*
X2803500Y888720D01*
X2569500Y887720D02*
X2804500Y887720D01*
X2567500Y886720D02*
X2805500Y886720D01*
X2565500Y885720D02*
X2805500Y885720D01*
X2562500Y884720D02*
X2806500Y884720D01*
X2560500Y883720D02*
X2696500Y883720D01*
X2714500Y883720D02*
X2807500Y883720D01*
X2558500Y882720D02*
X2688500Y882720D01*
X2721500Y882720D02*
X2808500Y882720D01*
X2556500Y881720D02*
X2683500Y881720D01*
X2725500Y881720D02*
X2808500Y881720D01*
X2554500Y880720D02*
X2678500Y880720D01*
X2729500Y880720D02*
X2809500Y880720D01*
X2552500Y879720D02*
X2674500Y879720D01*
X2731500Y879720D02*
X2809500Y879720D01*
X2549500Y878720D02*
X2671500Y878720D01*
X2734500Y878720D02*
X2810500Y878720D01*
X2547500Y877720D02*
X2667500Y877720D01*
X2736500Y877720D02*
X2810500Y877720D01*
X2545500Y876720D02*
X2664500Y876720D01*
X2739500Y876720D02*
X2810500Y876720D01*
X2542500Y875720D02*
X2661500Y875720D01*
X2740500Y875720D02*
X2811500Y875720D01*
X2540500Y874720D02*
X2658500Y874720D01*
X2742500Y874720D02*
X2811500Y874720D01*
X2538500Y873720D02*
X2656500Y873720D01*
X2744500Y873720D02*
X2811500Y873720D01*
X2536500Y872720D02*
X2653500Y872720D01*
X2746500Y872720D02*
X2811500Y872720D01*
X2533500Y871720D02*
X2650500Y871720D01*
X2748500Y871720D02*
X2811500Y871720D01*
X2531500Y870720D02*
X2648500Y870720D01*
X2749500Y870720D02*
X2812500Y870720D01*
X2529500Y869720D02*
X2645500Y869720D01*
X2751500Y869720D02*
X2812500Y869720D01*
X2527500Y868720D02*
X2643500Y868720D01*
X2753500Y868720D02*
X2812500Y868720D01*
X2524500Y867720D02*
X2640500Y867720D01*
X2754500Y867720D02*
X2811500Y867720D01*
X2522500Y866720D02*
X2638500Y866720D01*
X2755500Y866720D02*
X2811500Y866720D01*
X2520500Y865720D02*
X2635500Y865720D01*
X2757500Y865720D02*
X2811500Y865720D01*
X2517500Y864720D02*
X2633500Y864720D01*
X2758500Y864720D02*
X2811500Y864720D01*
X2515500Y863720D02*
X2631500Y863720D01*
X2759500Y863720D02*
X2811500Y863720D01*
X2512500Y862720D02*
X2629500Y862720D01*
X2760500Y862720D02*
X2810500Y862720D01*
X2510500Y861720D02*
X2626500Y861720D01*
X2762500Y861720D02*
X2810500Y861720D01*
X2508500Y860720D02*
X2624500Y860720D01*
X2763500Y860720D02*
X2810500Y860720D01*
X2505500Y859720D02*
X2622500Y859720D01*
X2764500Y859720D02*
X2809500Y859720D01*
X2503500Y858720D02*
X2620500Y858720D01*
X2765500Y858720D02*
X2809500Y858720D01*
X2500500Y857720D02*
X2618500Y857720D01*
X2766500Y857720D02*
X2808500Y857720D01*
X2497500Y856720D02*
X2615500Y856720D01*
X2767500Y856720D02*
X2808500Y856720D01*
X2495500Y855720D02*
X2613500Y855720D01*
X2768500Y855720D02*
X2807500Y855720D01*
X2492500Y854720D02*
X2611500Y854720D01*
X2770500Y854720D02*
X2806500Y854720D01*
X2490500Y853720D02*
X2609500Y853720D01*
X2771500Y853720D02*
X2805500Y853720D01*
X2487500Y852720D02*
X2607500Y852720D01*
X2772500Y852720D02*
X2804500Y852720D01*
X2484500Y851720D02*
X2604500Y851720D01*
X2773500Y851720D02*
X2803500Y851720D01*
X2481500Y850720D02*
X2602500Y850720D01*
X2774500Y850720D02*
X2802500Y850720D01*
X2479500Y849720D02*
X2600500Y849720D01*
X2776500Y849720D02*
X2801500Y849720D01*
X2476500Y848720D02*
X2598500Y848720D01*
X2777500Y848720D02*
X2799500Y848720D01*
X2473500Y847720D02*
X2596500Y847720D01*
X2779500Y847720D02*
X2797500Y847720D01*
X2470500Y846720D02*
X2594500Y846720D01*
X2783500Y846720D02*
X2794500Y846720D01*
X2467500Y845720D02*
X2591500Y845720D01*
X2464500Y844720D02*
X2589500Y844720D01*
X2461500Y843720D02*
X2587500Y843720D01*
X2458500Y842720D02*
X2585500Y842720D01*
X2660500Y842720D02*
X2678500Y842720D01*
X2455500Y841720D02*
X2583500Y841720D01*
X2651500Y841720D02*
X2686500Y841720D01*
X2452500Y840720D02*
X2581500Y840720D01*
X2644500Y840720D02*
X2691500Y840720D01*
X2448500Y839720D02*
X2578500Y839720D01*
X2639500Y839720D02*
X2695500Y839720D01*
X2445500Y838720D02*
X2576500Y838720D01*
X2634500Y838720D02*
X2699500Y838720D01*
X2442500Y837720D02*
X2574500Y837720D01*
X2630500Y837720D02*
X2702500Y837720D01*
X2438500Y836720D02*
X2572500Y836720D01*
X2626500Y836720D02*
X2704500Y836720D01*
X2435500Y835720D02*
X2570500Y835720D01*
X2622500Y835720D02*
X2707500Y835720D01*
X2431500Y834720D02*
X2567500Y834720D01*
X2618500Y834720D02*
X2709500Y834720D01*
X2427500Y833720D02*
X2565500Y833720D01*
X2615500Y833720D02*
X2711500Y833720D01*
X2423500Y832720D02*
X2563500Y832720D01*
X2612500Y832720D02*
X2713500Y832720D01*
X2419500Y831720D02*
X2561500Y831720D01*
X2609500Y831720D02*
X2715500Y831720D01*
X2415500Y830720D02*
X2558500Y830720D01*
X2606500Y830720D02*
X2716500Y830720D01*
X2411500Y829720D02*
X2556500Y829720D01*
X2603500Y829720D02*
X2718500Y829720D01*
X2406500Y828720D02*
X2554500Y828720D01*
X2600500Y828720D02*
X2719500Y828720D01*
X2402500Y827720D02*
X2552500Y827720D01*
X2597500Y827720D02*
X2721500Y827720D01*
X2397500Y826720D02*
X2549500Y826720D01*
X2594500Y826720D02*
X2722500Y826720D01*
X2392500Y825720D02*
X2547500Y825720D01*
X2591500Y825720D02*
X2723500Y825720D01*
X2386500Y824720D02*
X2545500Y824720D01*
X2589500Y824720D02*
X2725500Y824720D01*
X2381500Y823720D02*
X2543500Y823720D01*
X2586500Y823720D02*
X2726500Y823720D01*
X2375500Y822720D02*
X2540500Y822720D01*
X2584500Y822720D02*
X2727500Y822720D01*
X2368500Y821720D02*
X2538500Y821720D01*
X2581500Y821720D02*
X2728500Y821720D01*
X2362500Y820720D02*
X2536500Y820720D01*
X2578500Y820720D02*
X2729500Y820720D01*
X2354500Y819720D02*
X2533500Y819720D01*
X2576500Y819720D02*
X2730500Y819720D01*
X2346500Y818720D02*
X2531500Y818720D01*
X2573500Y818720D02*
X2731500Y818720D01*
X2215500Y817720D02*
X2219500Y817720D01*
X2337500Y817720D02*
X2528500Y817720D01*
X2571500Y817720D02*
X2732500Y817720D01*
X2210500Y816720D02*
X2223500Y816720D01*
X2332500Y816720D02*
X2526500Y816720D01*
X2568500Y816720D02*
X2733500Y816720D01*
X2208500Y815720D02*
X2226500Y815720D01*
X2330500Y815720D02*
X2523500Y815720D01*
X2566500Y815720D02*
X2734500Y815720D01*
X2206500Y814720D02*
X2228500Y814720D01*
X2328500Y814720D02*
X2521500Y814720D01*
X2564500Y814720D02*
X2735500Y814720D01*
X2204500Y813720D02*
X2230500Y813720D01*
X2326500Y813720D02*
X2518500Y813720D01*
X2561500Y813720D02*
X2736500Y813720D01*
X2203500Y812720D02*
X2231500Y812720D01*
X2325500Y812720D02*
X2516500Y812720D01*
X2559500Y812720D02*
X2737500Y812720D01*
X2202500Y811720D02*
X2232500Y811720D01*
X2324500Y811720D02*
X2513500Y811720D01*
X2557500Y811720D02*
X2737500Y811720D01*
X2200500Y810720D02*
X2234500Y810720D01*
X2323500Y810720D02*
X2511500Y810720D01*
X2554500Y810720D02*
X2738500Y810720D01*
X2200500Y809720D02*
X2234500Y809720D01*
X2322500Y809720D02*
X2508500Y809720D01*
X2552500Y809720D02*
X2738500Y809720D01*
X2199500Y808720D02*
X2235500Y808720D01*
X2321500Y808720D02*
X2505500Y808720D01*
X2550500Y808720D02*
X2739500Y808720D01*
X2198500Y807720D02*
X2236500Y807720D01*
X2320500Y807720D02*
X2503500Y807720D01*
X2547500Y807720D02*
X2739500Y807720D01*
X2197500Y806720D02*
X2237500Y806720D01*
X2319500Y806720D02*
X2500500Y806720D01*
X2545500Y806720D02*
X2740500Y806720D01*
X2197500Y805720D02*
X2237500Y805720D01*
X2319500Y805720D02*
X2497500Y805720D01*
X2543500Y805720D02*
X2740500Y805720D01*
X2196500Y804720D02*
X2238500Y804720D01*
X2318500Y804720D02*
X2494500Y804720D01*
X2541500Y804720D02*
X2740500Y804720D01*
X2196500Y803720D02*
X2238500Y803720D01*
X2318500Y803720D02*
X2492500Y803720D01*
X2538500Y803720D02*
X2740500Y803720D01*
X2195500Y802720D02*
X2239500Y802720D01*
X2317500Y802720D02*
X2489500Y802720D01*
X2536500Y802720D02*
X2741500Y802720D01*
X2195500Y801720D02*
X2239500Y801720D01*
X2317500Y801720D02*
X2486500Y801720D01*
X2534500Y801720D02*
X2741500Y801720D01*
X2195500Y800720D02*
X2240500Y800720D01*
X2317500Y800720D02*
X2483500Y800720D01*
X2532500Y800720D02*
X2741500Y800720D01*
X2194500Y799720D02*
X2240500Y799720D01*
X2316500Y799720D02*
X2480500Y799720D01*
X2529500Y799720D02*
X2741500Y799720D01*
X2194500Y798720D02*
X2241500Y798720D01*
X2316500Y798720D02*
X2477500Y798720D01*
X2527500Y798720D02*
X2741500Y798720D01*
X2194500Y797720D02*
X2241500Y797720D01*
X2316500Y797720D02*
X2474500Y797720D01*
X2525500Y797720D02*
X2741500Y797720D01*
X2194500Y796720D02*
X2241500Y796720D01*
X2316500Y796720D02*
X2471500Y796720D01*
X2523500Y796720D02*
X2741500Y796720D01*
X2194500Y795720D02*
X2242500Y795720D01*
X2316500Y795720D02*
X2467500Y795720D01*
X2521500Y795720D02*
X2741500Y795720D01*
X2194500Y794720D02*
X2242500Y794720D01*
X2316500Y794720D02*
X2464500Y794720D01*
X2518500Y794720D02*
X2660500Y794720D01*
X2678500Y794720D02*
X2740500Y794720D01*
X2193500Y793720D02*
X2243500Y793720D01*
X2316500Y793720D02*
X2461500Y793720D01*
X2516500Y793720D02*
X2652500Y793720D01*
X2683500Y793720D02*
X2740500Y793720D01*
X2194500Y792720D02*
X2243500Y792720D01*
X2316500Y792720D02*
X2457500Y792720D01*
X2514500Y792720D02*
X2647500Y792720D01*
X2686500Y792720D02*
X2740500Y792720D01*
X2194500Y791720D02*
X2244500Y791720D01*
X2316500Y791720D02*
X2454500Y791720D01*
X2512500Y791720D02*
X2642500Y791720D01*
X2689500Y791720D02*
X2740500Y791720D01*
X2194500Y790720D02*
X2244500Y790720D01*
X2316500Y790720D02*
X2451500Y790720D01*
X2509500Y790720D02*
X2638500Y790720D01*
X2691500Y790720D02*
X2739500Y790720D01*
X2194500Y789720D02*
X2245500Y789720D01*
X2316500Y789720D02*
X2447500Y789720D01*
X2507500Y789720D02*
X2635500Y789720D01*
X2693500Y789720D02*
X2739500Y789720D01*
X2194500Y788720D02*
X2245500Y788720D01*
X2316500Y788720D02*
X2443500Y788720D01*
X2505500Y788720D02*
X2631500Y788720D01*
X2694500Y788720D02*
X2738500Y788720D01*
X2194500Y787720D02*
X2246500Y787720D01*
X2316500Y787720D02*
X2439500Y787720D01*
X2503500Y787720D02*
X2628500Y787720D01*
X2696500Y787720D02*
X2738500Y787720D01*
X2195500Y786720D02*
X2246500Y786720D01*
X2317500Y786720D02*
X2436500Y786720D01*
X2501500Y786720D02*
X2625500Y786720D01*
X2697500Y786720D02*
X2737500Y786720D01*
X2195500Y785720D02*
X2247500Y785720D01*
X2317500Y785720D02*
X2432500Y785720D01*
X2498500Y785720D02*
X2621500Y785720D01*
X2698500Y785720D02*
X2737500Y785720D01*
X2195500Y784720D02*
X2247500Y784720D01*
X2317500Y784720D02*
X2428500Y784720D01*
X2496500Y784720D02*
X2618500Y784720D01*
X2699500Y784720D02*
X2736500Y784720D01*
X2196500Y783720D02*
X2248500Y783720D01*
X2318500Y783720D02*
X2423500Y783720D01*
X2494500Y783720D02*
X2616500Y783720D01*
X2699500Y783720D02*
X2735500Y783720D01*
X2196500Y782720D02*
X2248500Y782720D01*
X2318500Y782720D02*
X2419500Y782720D01*
X2492500Y782720D02*
X2613500Y782720D01*
X2700500Y782720D02*
X2734500Y782720D01*
X2197500Y781720D02*
X2249500Y781720D01*
X2319500Y781720D02*
X2415500Y781720D01*
X2489500Y781720D02*
X2610500Y781720D01*
X2702500Y781720D02*
X2733500Y781720D01*
X2197500Y780720D02*
X2249500Y780720D01*
X2320500Y780720D02*
X2410500Y780720D01*
X2487500Y780720D02*
X2607500Y780720D01*
X2703500Y780720D02*
X2732500Y780720D01*
X2197500Y779720D02*
X2250500Y779720D01*
X2320500Y779720D02*
X2405500Y779720D01*
X2485500Y779720D02*
X2604500Y779720D01*
X2704500Y779720D02*
X2731500Y779720D01*
X2198500Y778720D02*
X2251500Y778720D01*
X2321500Y778720D02*
X2400500Y778720D01*
X2483500Y778720D02*
X2602500Y778720D01*
X2705500Y778720D02*
X2729500Y778720D01*
X2198500Y777720D02*
X2251500Y777720D01*
X2322500Y777720D02*
X2395500Y777720D01*
X2480500Y777720D02*
X2599500Y777720D01*
X2707500Y777720D02*
X2728500Y777720D01*
X2199500Y776720D02*
X2252500Y776720D01*
X2323500Y776720D02*
X2390500Y776720D01*
X2478500Y776720D02*
X2597500Y776720D01*
X2710500Y776720D02*
X2725500Y776720D01*
X2199500Y775720D02*
X2252500Y775720D01*
X2324500Y775720D02*
X2384500Y775720D01*
X2476500Y775720D02*
X2594500Y775720D01*
X2713500Y775720D02*
X2722500Y775720D01*
X2200500Y774720D02*
X2253500Y774720D01*
X2325500Y774720D02*
X2378500Y774720D01*
X2474500Y774720D02*
X2592500Y774720D01*
X2200500Y773720D02*
X2254500Y773720D01*
X2327500Y773720D02*
X2371500Y773720D01*
X2471500Y773720D02*
X2589500Y773720D01*
X2201500Y772720D02*
X2254500Y772720D01*
X2328500Y772720D02*
X2364500Y772720D01*
X2469500Y772720D02*
X2587500Y772720D01*
X2201500Y771720D02*
X2255500Y771720D01*
X2331500Y771720D02*
X2357500Y771720D01*
X2467500Y771720D02*
X2584500Y771720D01*
X2202500Y770720D02*
X2256500Y770720D01*
X2333500Y770720D02*
X2348500Y770720D01*
X2465500Y770720D02*
X2582500Y770720D01*
X2202500Y769720D02*
X2257500Y769720D01*
X2462500Y769720D02*
X2580500Y769720D01*
X2203500Y768720D02*
X2257500Y768720D01*
X2460500Y768720D02*
X2577500Y768720D01*
X2203500Y767720D02*
X2258500Y767720D01*
X2458500Y767720D02*
X2575500Y767720D01*
X2204500Y766720D02*
X2259500Y766720D01*
X2455500Y766720D02*
X2572500Y766720D01*
X2204500Y765720D02*
X2260500Y765720D01*
X2453500Y765720D02*
X2570500Y765720D01*
X2205500Y764720D02*
X2260500Y764720D01*
X2450500Y764720D02*
X2568500Y764720D01*
X2205500Y763720D02*
X2261500Y763720D01*
X2448500Y763720D02*
X2566500Y763720D01*
X2206500Y762720D02*
X2262500Y762720D01*
X2446500Y762720D02*
X2563500Y762720D01*
X2206500Y761720D02*
X2263500Y761720D01*
X2443500Y761720D02*
X2561500Y761720D01*
X2207500Y760720D02*
X2264500Y760720D01*
X2441500Y760720D02*
X2559500Y760720D01*
X2207500Y759720D02*
X2265500Y759720D01*
X2438500Y759720D02*
X2557500Y759720D01*
X2208500Y758720D02*
X2266500Y758720D01*
X2436500Y758720D02*
X2554500Y758720D01*
X2208500Y757720D02*
X2267500Y757720D01*
X2433500Y757720D02*
X2552500Y757720D01*
X2209500Y756720D02*
X2268500Y756720D01*
X2430500Y756720D02*
X2550500Y756720D01*
X2210500Y755720D02*
X2269500Y755720D01*
X2428500Y755720D02*
X2548500Y755720D01*
X2210500Y754720D02*
X2270500Y754720D01*
X2425500Y754720D02*
X2545500Y754720D01*
X2211500Y753720D02*
X2271500Y753720D01*
X2423500Y753720D02*
X2543500Y753720D01*
X2211500Y752720D02*
X2272500Y752720D01*
X2420500Y752720D02*
X2541500Y752720D01*
X2212500Y751720D02*
X2274500Y751720D01*
X2417500Y751720D02*
X2539500Y751720D01*
X2213500Y750720D02*
X2275500Y750720D01*
X2414500Y750720D02*
X2537500Y750720D01*
X2213500Y749720D02*
X2276500Y749720D01*
X2411500Y749720D02*
X2534500Y749720D01*
X2214500Y748720D02*
X2278500Y748720D01*
X2408500Y748720D02*
X2532500Y748720D01*
X2215500Y747720D02*
X2279500Y747720D01*
X2406500Y747720D02*
X2530500Y747720D01*
X2215500Y746720D02*
X2280500Y746720D01*
X2402500Y746720D02*
X2528500Y746720D01*
X2216500Y745720D02*
X2282500Y745720D01*
X2399500Y745720D02*
X2526500Y745720D01*
X2217500Y744720D02*
X2284500Y744720D01*
X2396500Y744720D02*
X2523500Y744720D01*
X2217500Y743720D02*
X2285500Y743720D01*
X2393500Y743720D02*
X2521500Y743720D01*
X2218500Y742720D02*
X2287500Y742720D01*
X2389500Y742720D02*
X2519500Y742720D01*
X2219500Y741720D02*
X2289500Y741720D01*
X2386500Y741720D02*
X2517500Y741720D01*
X2219500Y740720D02*
X2291500Y740720D01*
X2382500Y740720D02*
X2514500Y740720D01*
X2220500Y739720D02*
X2294500Y739720D01*
X2378500Y739720D02*
X2512500Y739720D01*
X2221500Y738720D02*
X2296500Y738720D01*
X2374500Y738720D02*
X2510500Y738720D01*
X2222500Y737720D02*
X2299500Y737720D01*
X2369500Y737720D02*
X2508500Y737720D01*
X2222500Y736720D02*
X2303500Y736720D01*
X2364500Y736720D02*
X2505500Y736720D01*
X2223500Y735720D02*
X2307500Y735720D01*
X2358500Y735720D02*
X2503500Y735720D01*
X2224500Y734720D02*
X2314500Y734720D01*
X2350500Y734720D02*
X2501500Y734720D01*
X2225500Y733720D02*
X2325500Y733720D01*
X2338500Y733720D02*
X2499500Y733720D01*
X2226500Y732720D02*
X2496500Y732720D01*
X2227500Y731720D02*
X2494500Y731720D01*
X2228500Y730720D02*
X2492500Y730720D01*
X2228500Y729720D02*
X2490500Y729720D01*
X2229500Y728720D02*
X2487500Y728720D01*
X2230500Y727720D02*
X2485500Y727720D01*
X2231500Y726720D02*
X2483500Y726720D01*
X2232500Y725720D02*
X2480500Y725720D01*
X2233500Y724720D02*
X2478500Y724720D01*
X2234500Y723720D02*
X2476500Y723720D01*
X2235500Y722720D02*
X2473500Y722720D01*
X2236500Y721720D02*
X2471500Y721720D01*
X2237500Y720720D02*
X2469500Y720720D01*
X2238500Y719720D02*
X2466500Y719720D01*
X2239500Y718720D02*
X2464500Y718720D01*
X2240500Y717720D02*
X2461500Y717720D01*
X2242500Y716720D02*
X2459500Y716720D01*
X2243500Y715720D02*
X2456500Y715720D01*
X2244500Y714720D02*
X2454500Y714720D01*
X2245500Y713720D02*
X2451500Y713720D01*
X2247500Y712720D02*
X2449500Y712720D01*
X2248500Y711720D02*
X2446500Y711720D01*
X2249500Y710720D02*
X2443500Y710720D01*
X2251500Y709720D02*
X2441500Y709720D01*
X2252500Y708720D02*
X2438500Y708720D01*
X2254500Y707720D02*
X2435500Y707720D01*
X2255500Y706720D02*
X2432500Y706720D01*
X2257500Y705720D02*
X2429500Y705720D01*
X2258500Y704720D02*
X2426500Y704720D01*
X2260500Y703720D02*
X2424500Y703720D01*
X2262500Y702720D02*
X2421500Y702720D01*
X2264500Y701720D02*
X2418500Y701720D01*
X2266500Y700720D02*
X2415500Y700720D01*
X2268500Y699720D02*
X2411500Y699720D01*
X2270500Y698720D02*
X2408500Y698720D01*
X2272500Y697720D02*
X2405500Y697720D01*
X2274500Y696720D02*
X2401500Y696720D01*
X2277500Y695720D02*
X2398500Y695720D01*
X2279500Y694720D02*
X2394500Y694720D01*
X2282500Y693720D02*
X2390500Y693720D01*
X2285500Y692720D02*
X2386500Y692720D01*
X2289500Y691720D02*
X2381500Y691720D01*
X2292500Y690720D02*
X2376500Y690720D01*
X2296500Y689720D02*
X2371500Y689720D01*
X2300500Y688720D02*
X2366500Y688720D01*
X2306500Y687720D02*
X2359500Y687720D01*
X2312500Y686720D02*
X2351500Y686720D01*
X2326500Y685720D02*
X2335500Y685720D01*
D02*
G04 End of Copper0*
M02*