G04 MADE WITH FRITZING*
G04 WWW.FRITZING.ORG*
G04 DOUBLE SIDED*
G04 HOLES PLATED*
G04 CONTOUR ON CENTER OF CONTOUR VECTOR*
%FSLAX26Y26*%
%MOIN*%
%ADD10C,0.085000*%
%ADD11C,0.080000*%
%ADD12C,0.096614*%
%ADD13C,0.049370*%
%ADD14R,0.080866X0.135984*%
%ADD15R,0.085000X0.085000*%
%ADD16R,0.036000X0.090000*%
%ADD17C,0.000100*%
%ADD18C,0.010000*%
%ADD19C,0.030000*%
%G04MASK1*%
%FSLAX26Y26*%
%MOIN*%
D10*
X1418140Y1704495D03*
X1718140Y1704495D03*
X2539190Y1785727D03*
X2751320Y1573595D03*
X544939Y1798995D03*
X891349Y1598995D03*
X1518140Y898990D03*
X1818140Y898990D03*
X1518140Y798990D03*
X1818140Y798990D03*
X1518140Y698990D03*
X1818140Y698990D03*
X1518140Y598990D03*
X1818140Y598990D03*
X2788850Y869710D03*
X3000980Y657580D03*
X2718140Y799000D03*
X2930270Y586860D03*
X2647430Y728290D03*
X2859560Y516150D03*
X2576720Y657580D03*
X2788850Y445440D03*
X833240Y921750D03*
X1093050Y771750D03*
X783240Y835150D03*
X1043050Y685150D03*
X733240Y748540D03*
X993047Y598540D03*
X683240Y661940D03*
X943047Y511940D03*
D11*
X2317960Y1098990D03*
X2217780Y1098990D03*
X2317960Y1098990D03*
X2217780Y1098990D03*
X2418330Y998990D03*
X2218330Y998990D03*
X2418330Y998990D03*
X2218330Y998990D03*
D12*
X1214920Y1239378D03*
D13*
X1206920Y1081920D03*
D14*
X1497673Y1298995D03*
X1718143Y1298995D03*
D15*
X1518140Y898990D03*
D16*
X1568140Y98990D03*
X1618140Y98990D03*
X1668140Y98990D03*
X1718140Y98990D03*
X1718140Y340990D03*
X1668140Y340990D03*
X1618140Y340990D03*
X1568140Y340990D03*
D17*
G36*
X489391Y1446068D02*
X426399Y1336963D01*
X365027Y1372396D01*
X428019Y1481501D01*
X489391Y1446068D01*
G37*
D18*
X489391Y1446068D02*
X426399Y1336963D01*
X365027Y1372396D01*
X428019Y1481501D01*
X489391Y1446068D01*
D02*
D17*
G36*
X680326Y1335831D02*
X617334Y1226726D01*
X555962Y1262159D01*
X618954Y1371264D01*
X680326Y1335831D01*
G37*
D18*
X680326Y1335831D02*
X617334Y1226726D01*
X555962Y1262159D01*
X618954Y1371264D01*
X680326Y1335831D01*
D02*
D17*
G36*
X2431840Y1474380D02*
X2342760Y1385296D01*
X2292650Y1435406D01*
X2381730Y1524490D01*
X2431840Y1474380D01*
G37*
D18*
X2431840Y1474380D02*
X2342760Y1385296D01*
X2292650Y1435406D01*
X2381730Y1524490D01*
X2431840Y1474380D01*
D02*
D17*
G36*
X2587740Y1318482D02*
X2498650Y1229398D01*
X2448540Y1279508D01*
X2537630Y1368592D01*
X2587740Y1318482D01*
G37*
D18*
X2587740Y1318482D02*
X2498650Y1229398D01*
X2448540Y1279508D01*
X2537630Y1368592D01*
X2587740Y1318482D01*
D02*
D17*
G36*
X507803Y232070D02*
X467803Y162790D01*
X445287Y175790D01*
X485287Y245070D01*
X507803Y232070D01*
G37*
D18*
X507803Y232070D02*
X467803Y162790D01*
X445287Y175790D01*
X485287Y245070D01*
X507803Y232070D01*
D02*
D17*
G36*
X551104Y207070D02*
X511104Y137790D01*
X488588Y150790D01*
X528588Y220070D01*
X551104Y207070D01*
G37*
D18*
X551104Y207070D02*
X511104Y137790D01*
X488588Y150790D01*
X528588Y220070D01*
X551104Y207070D01*
D02*
D17*
G36*
X594406Y182070D02*
X554406Y112790D01*
X531889Y125790D01*
X571889Y195070D01*
X594406Y182070D01*
G37*
D18*
X594406Y182070D02*
X554406Y112790D01*
X531889Y125790D01*
X571889Y195070D01*
X594406Y182070D01*
D02*
D17*
G36*
X637707Y157070D02*
X597707Y87790D01*
X575190Y100790D01*
X615190Y170070D01*
X637707Y157070D01*
G37*
D18*
X637707Y157070D02*
X597707Y87790D01*
X575190Y100790D01*
X615190Y170070D01*
X637707Y157070D01*
D02*
D17*
G36*
X758707Y366650D02*
X718707Y297360D01*
X696190Y310360D01*
X736190Y379650D01*
X758707Y366650D01*
G37*
D18*
X758707Y366650D02*
X718707Y297360D01*
X696190Y310360D01*
X736190Y379650D01*
X758707Y366650D01*
D02*
D17*
G36*
X715406Y391650D02*
X675406Y322360D01*
X652889Y335360D01*
X692889Y404650D01*
X715406Y391650D01*
G37*
D18*
X715406Y391650D02*
X675406Y322360D01*
X652889Y335360D01*
X692889Y404650D01*
X715406Y391650D01*
D02*
D17*
G36*
X672104Y416650D02*
X632104Y347360D01*
X609588Y360360D01*
X649588Y429650D01*
X672104Y416650D01*
G37*
D18*
X672104Y416650D02*
X632104Y347360D01*
X609588Y360360D01*
X649588Y429650D01*
X672104Y416650D01*
D02*
D17*
G36*
X628803Y441650D02*
X588803Y372360D01*
X566287Y385360D01*
X606287Y454650D01*
X628803Y441650D01*
G37*
D18*
X628803Y441650D02*
X588803Y372360D01*
X566287Y385360D01*
X606287Y454650D01*
X628803Y441650D01*
D02*
D17*
G36*
X2320270Y253440D02*
X2263700Y196870D01*
X2245320Y215260D01*
X2301880Y271830D01*
X2320270Y253440D01*
G37*
D18*
X2320270Y253440D02*
X2263700Y196870D01*
X2245320Y215260D01*
X2301880Y271830D01*
X2320270Y253440D01*
D02*
D17*
G36*
X2355620Y218090D02*
X2299060Y161520D01*
X2280670Y179900D01*
X2337240Y236470D01*
X2355620Y218090D01*
G37*
D18*
X2355620Y218090D02*
X2299060Y161520D01*
X2280670Y179900D01*
X2337240Y236470D01*
X2355620Y218090D01*
D02*
D17*
G36*
X2390980Y182730D02*
X2334410Y126160D01*
X2316030Y144550D01*
X2372590Y201120D01*
X2390980Y182730D01*
G37*
D18*
X2390980Y182730D02*
X2334410Y126160D01*
X2316030Y144550D01*
X2372590Y201120D01*
X2390980Y182730D01*
D02*
D17*
G36*
X2426330Y147370D02*
X2369770Y90810D01*
X2351380Y109190D01*
X2407950Y165760D01*
X2426330Y147370D01*
G37*
D18*
X2426330Y147370D02*
X2369770Y90810D01*
X2351380Y109190D01*
X2407950Y165760D01*
X2426330Y147370D01*
D02*
D17*
G36*
X2597450Y318490D02*
X2540890Y261930D01*
X2522500Y280310D01*
X2579070Y336880D01*
X2597450Y318490D01*
G37*
D18*
X2597450Y318490D02*
X2540890Y261930D01*
X2522500Y280310D01*
X2579070Y336880D01*
X2597450Y318490D01*
D02*
D17*
G36*
X2562100Y353850D02*
X2505530Y297280D01*
X2487150Y315670D01*
X2543710Y372240D01*
X2562100Y353850D01*
G37*
D18*
X2562100Y353850D02*
X2505530Y297280D01*
X2487150Y315670D01*
X2543710Y372240D01*
X2562100Y353850D01*
D02*
D17*
G36*
X2526740Y389210D02*
X2470180Y332640D01*
X2451790Y351020D01*
X2508360Y407590D01*
X2526740Y389210D01*
G37*
D18*
X2526740Y389210D02*
X2470180Y332640D01*
X2451790Y351020D01*
X2508360Y407590D01*
X2526740Y389210D01*
D02*
D17*
G36*
X2491390Y424560D02*
X2434820Y367990D01*
X2416440Y386380D01*
X2473000Y442950D01*
X2491390Y424560D01*
G37*
D18*
X2491390Y424560D02*
X2434820Y367990D01*
X2416440Y386380D01*
X2473000Y442950D01*
X2491390Y424560D01*
D02*
D17*
G36*
X2827740Y869710D02*
X2788850Y830820D01*
X2749960Y869710D01*
X2788850Y908600D01*
X2827740Y869710D01*
G37*
D19*
X2827740Y869710D02*
X2788850Y830820D01*
X2749960Y869710D01*
X2788850Y908600D01*
X2827740Y869710D01*
D02*
D17*
G36*
X870805Y931810D02*
X843305Y884180D01*
X795674Y911680D01*
X823174Y959310D01*
X870805Y931810D01*
G37*
D19*
X870805Y931810D02*
X843305Y884180D01*
X795674Y911680D01*
X823174Y959310D01*
X870805Y931810D01*
D02*
G04 End of Mask1*
M02*