G04 MADE WITH FRITZING*
G04 WWW.FRITZING.ORG*
G04 DOUBLE SIDED*
G04 HOLES PLATED*
G04 CONTOUR ON CENTER OF CONTOUR VECTOR*
%FSLAX26Y26*%
%MOIN*%
%ADD10C,0.075000*%
%ADD11C,0.070000*%
%ADD12C,0.039370*%
%ADD13R,0.070866X0.125984*%
%ADD14R,0.075000X0.075000*%
%ADD15R,0.026000X0.080000*%
%ADD16C,0.012000*%
%ADD17C,0.048000*%
%ADD18C,0.000100*%
%ADD19C,0.020000*%
%ADD20R,0.001000X0.001000*%
%G04COPPER1*%
%FSLAX26Y26*%
%MOIN*%
D10*
X1418140Y1704495D03*
X1718140Y1704495D03*
X2539190Y1785727D03*
X2751320Y1573595D03*
X544939Y1798995D03*
X891349Y1598995D03*
X1518140Y898990D03*
X1818140Y898990D03*
X1518140Y798990D03*
X1818140Y798990D03*
X1518140Y698990D03*
X1818140Y698990D03*
X1518140Y598990D03*
X1818140Y598990D03*
X2788850Y869710D03*
X3000980Y657580D03*
X2718140Y799000D03*
X2930270Y586860D03*
X2647430Y728290D03*
X2859560Y516150D03*
X2576720Y657580D03*
X2788850Y445440D03*
X833240Y921750D03*
X1093050Y771750D03*
X783240Y835150D03*
X1043050Y685150D03*
X733240Y748540D03*
X993047Y598540D03*
X683240Y661940D03*
X943047Y511940D03*
D11*
X2317960Y1098990D03*
X2217780Y1098990D03*
X2317960Y1098990D03*
X2217780Y1098990D03*
X2418330Y998990D03*
X2218330Y998990D03*
X2418330Y998990D03*
X2218330Y998990D03*
D12*
X1206920Y1081920D03*
D13*
X1497673Y1298995D03*
X1718143Y1298995D03*
D14*
X1518140Y898990D03*
D15*
X1568140Y98990D03*
X1618140Y98990D03*
X1668140Y98990D03*
X1718140Y98990D03*
X1718140Y340990D03*
X1668140Y340990D03*
X1618140Y340990D03*
X1568140Y340990D03*
D16*
X678792Y645010D02*
X635818Y481470D01*
D02*
X635818Y481470D02*
X614446Y443520D01*
D17*
D02*
X1500650Y698480D02*
X1060540Y685650D01*
D18*
G36*
X2431840Y1474380D02*
X2342760Y1385296D01*
X2292650Y1435406D01*
X2381730Y1524490D01*
X2431840Y1474380D01*
G37*
D02*
G36*
X2587740Y1318482D02*
X2498650Y1229398D01*
X2448540Y1279508D01*
X2537630Y1368592D01*
X2587740Y1318482D01*
G37*
D02*
G36*
X489391Y1446068D02*
X426399Y1336963D01*
X365027Y1372396D01*
X428019Y1481501D01*
X489391Y1446068D01*
G37*
D02*
G36*
X680326Y1335831D02*
X617334Y1226726D01*
X555962Y1262159D01*
X618954Y1371264D01*
X680326Y1335831D01*
G37*
D02*
G36*
X507803Y232070D02*
X467803Y162790D01*
X445287Y175790D01*
X485287Y245070D01*
X507803Y232070D01*
G37*
D02*
G36*
X551104Y207070D02*
X511104Y137790D01*
X488588Y150790D01*
X528588Y220070D01*
X551104Y207070D01*
G37*
D02*
G36*
X594406Y182070D02*
X554406Y112790D01*
X531889Y125790D01*
X571889Y195070D01*
X594406Y182070D01*
G37*
D02*
G36*
X637707Y157070D02*
X597707Y87790D01*
X575190Y100790D01*
X615190Y170070D01*
X637707Y157070D01*
G37*
D02*
G36*
X758707Y366650D02*
X718707Y297360D01*
X696190Y310360D01*
X736190Y379650D01*
X758707Y366650D01*
G37*
D02*
G36*
X715406Y391650D02*
X675406Y322360D01*
X652889Y335360D01*
X692889Y404650D01*
X715406Y391650D01*
G37*
D02*
G36*
X672104Y416650D02*
X632104Y347360D01*
X609588Y360360D01*
X649588Y429650D01*
X672104Y416650D01*
G37*
D02*
G36*
X628803Y441650D02*
X588803Y372360D01*
X566287Y385360D01*
X606287Y454650D01*
X628803Y441650D01*
G37*
D02*
G36*
X2320270Y253440D02*
X2263700Y196870D01*
X2245320Y215260D01*
X2301880Y271830D01*
X2320270Y253440D01*
G37*
D02*
G36*
X2355620Y218090D02*
X2299060Y161520D01*
X2280670Y179900D01*
X2337240Y236470D01*
X2355620Y218090D01*
G37*
D02*
G36*
X2390980Y182730D02*
X2334410Y126160D01*
X2316030Y144550D01*
X2372590Y201120D01*
X2390980Y182730D01*
G37*
D02*
G36*
X2426330Y147370D02*
X2369770Y90810D01*
X2351380Y109190D01*
X2407950Y165760D01*
X2426330Y147370D01*
G37*
D02*
G36*
X2597450Y318490D02*
X2540890Y261930D01*
X2522500Y280310D01*
X2579070Y336880D01*
X2597450Y318490D01*
G37*
D02*
G36*
X2562100Y353850D02*
X2505530Y297280D01*
X2487150Y315670D01*
X2543710Y372240D01*
X2562100Y353850D01*
G37*
D02*
G36*
X2526740Y389210D02*
X2470180Y332640D01*
X2451790Y351020D01*
X2508360Y407590D01*
X2526740Y389210D01*
G37*
D02*
G36*
X2491390Y424560D02*
X2434820Y367990D01*
X2416440Y386380D01*
X2473000Y442950D01*
X2491390Y424560D01*
G37*
D02*
D19*
X2827740Y869710D02*
X2788850Y830820D01*
X2749960Y869710D01*
X2788850Y908600D01*
X2827740Y869710D01*
D02*
X870805Y931810D02*
X843305Y884180D01*
X795674Y911680D01*
X823174Y959310D01*
X870805Y931810D01*
D02*
D20*
X2272500Y2047720D02*
X2287500Y2047720D01*
X2269500Y2046720D02*
X2289500Y2046720D01*
X2268500Y2045720D02*
X2290500Y2045720D01*
X2268500Y2044720D02*
X2291500Y2044720D01*
X2267500Y2043720D02*
X2291500Y2043720D01*
X2267500Y2042720D02*
X2291500Y2042720D01*
X2267500Y2041720D02*
X2291500Y2041720D01*
X2268500Y2040720D02*
X2291500Y2040720D01*
X2268500Y2039720D02*
X2291500Y2039720D01*
X2269500Y2038720D02*
X2291500Y2038720D01*
X2282500Y2037720D02*
X2291500Y2037720D01*
X2282500Y2036720D02*
X2291500Y2036720D01*
X2282500Y2035720D02*
X2291500Y2035720D01*
X2282500Y2034720D02*
X2291500Y2034720D01*
X2282500Y2033720D02*
X2291500Y2033720D01*
X2282500Y2032720D02*
X2291500Y2032720D01*
X2282500Y2031720D02*
X2291500Y2031720D01*
X2282500Y2030720D02*
X2291500Y2030720D01*
X2282500Y2029720D02*
X2291500Y2029720D01*
X2282500Y2028720D02*
X2291500Y2028720D01*
X2282500Y2027720D02*
X2291500Y2027720D01*
X2282500Y2026720D02*
X2291500Y2026720D01*
X2282500Y2025720D02*
X2291500Y2025720D01*
X2348500Y2025720D02*
X2370500Y2025720D01*
X2420500Y2025720D02*
X2437500Y2025720D01*
X2449500Y2025720D02*
X2453500Y2025720D01*
X2493500Y2025720D02*
X2514500Y2025720D01*
X2282500Y2024720D02*
X2291500Y2024720D01*
X2346500Y2024720D02*
X2372500Y2024720D01*
X2418500Y2024720D02*
X2439500Y2024720D01*
X2448500Y2024720D02*
X2454500Y2024720D01*
X2491500Y2024720D02*
X2516500Y2024720D01*
X2282500Y2023720D02*
X2291500Y2023720D01*
X2344500Y2023720D02*
X2374500Y2023720D01*
X2417500Y2023720D02*
X2441500Y2023720D01*
X2447500Y2023720D02*
X2455500Y2023720D01*
X2489500Y2023720D02*
X2518500Y2023720D01*
X2282500Y2022720D02*
X2291500Y2022720D01*
X2343500Y2022720D02*
X2375500Y2022720D01*
X2415500Y2022720D02*
X2442500Y2022720D01*
X2447500Y2022720D02*
X2455500Y2022720D01*
X2487500Y2022720D02*
X2520500Y2022720D01*
X2282500Y2021720D02*
X2291500Y2021720D01*
X2342500Y2021720D02*
X2376500Y2021720D01*
X2414500Y2021720D02*
X2443500Y2021720D01*
X2447500Y2021720D02*
X2456500Y2021720D01*
X2486500Y2021720D02*
X2521500Y2021720D01*
X2282500Y2020720D02*
X2291500Y2020720D01*
X2340500Y2020720D02*
X2377500Y2020720D01*
X2413500Y2020720D02*
X2444500Y2020720D01*
X2447500Y2020720D02*
X2456500Y2020720D01*
X2485500Y2020720D02*
X2522500Y2020720D01*
X2282500Y2019720D02*
X2291500Y2019720D01*
X2340500Y2019720D02*
X2378500Y2019720D01*
X2412500Y2019720D02*
X2456500Y2019720D01*
X2484500Y2019720D02*
X2523500Y2019720D01*
X2282500Y2018720D02*
X2291500Y2018720D01*
X2339500Y2018720D02*
X2379500Y2018720D01*
X2411500Y2018720D02*
X2456500Y2018720D01*
X2483500Y2018720D02*
X2524500Y2018720D01*
X2282500Y2017720D02*
X2291500Y2017720D01*
X2338500Y2017720D02*
X2380500Y2017720D01*
X2410500Y2017720D02*
X2456500Y2017720D01*
X2482500Y2017720D02*
X2525500Y2017720D01*
X2282500Y2016720D02*
X2291500Y2016720D01*
X2337500Y2016720D02*
X2381500Y2016720D01*
X2409500Y2016720D02*
X2456500Y2016720D01*
X2482500Y2016720D02*
X2525500Y2016720D01*
X2282500Y2015720D02*
X2291500Y2015720D01*
X2337500Y2015720D02*
X2349500Y2015720D01*
X2369500Y2015720D02*
X2381500Y2015720D01*
X2409500Y2015720D02*
X2422500Y2015720D01*
X2435500Y2015720D02*
X2456500Y2015720D01*
X2481500Y2015720D02*
X2494500Y2015720D01*
X2513500Y2015720D02*
X2526500Y2015720D01*
X2282500Y2014720D02*
X2291500Y2014720D01*
X2336500Y2014720D02*
X2348500Y2014720D01*
X2370500Y2014720D02*
X2382500Y2014720D01*
X2408500Y2014720D02*
X2420500Y2014720D01*
X2437500Y2014720D02*
X2456500Y2014720D01*
X2481500Y2014720D02*
X2493500Y2014720D01*
X2515500Y2014720D02*
X2526500Y2014720D01*
X2282500Y2013720D02*
X2291500Y2013720D01*
X2336500Y2013720D02*
X2347500Y2013720D01*
X2371500Y2013720D02*
X2382500Y2013720D01*
X2408500Y2013720D02*
X2419500Y2013720D01*
X2438500Y2013720D02*
X2456500Y2013720D01*
X2480500Y2013720D02*
X2491500Y2013720D01*
X2516500Y2013720D02*
X2527500Y2013720D01*
X2282500Y2012720D02*
X2291500Y2012720D01*
X2335500Y2012720D02*
X2346500Y2012720D01*
X2372500Y2012720D02*
X2383500Y2012720D01*
X2407500Y2012720D02*
X2418500Y2012720D01*
X2439500Y2012720D02*
X2456500Y2012720D01*
X2480500Y2012720D02*
X2490500Y2012720D01*
X2517500Y2012720D02*
X2527500Y2012720D01*
X2282500Y2011720D02*
X2291500Y2011720D01*
X2335500Y2011720D02*
X2345500Y2011720D01*
X2373500Y2011720D02*
X2383500Y2011720D01*
X2407500Y2011720D02*
X2417500Y2011720D01*
X2440500Y2011720D02*
X2456500Y2011720D01*
X2479500Y2011720D02*
X2489500Y2011720D01*
X2518500Y2011720D02*
X2527500Y2011720D01*
X2282500Y2010720D02*
X2291500Y2010720D01*
X2335500Y2010720D02*
X2344500Y2010720D01*
X2374500Y2010720D02*
X2383500Y2010720D01*
X2407500Y2010720D02*
X2416500Y2010720D01*
X2441500Y2010720D02*
X2456500Y2010720D01*
X2479500Y2010720D02*
X2489500Y2010720D01*
X2518500Y2010720D02*
X2528500Y2010720D01*
X2282500Y2009720D02*
X2291500Y2009720D01*
X2335500Y2009720D02*
X2344500Y2009720D01*
X2374500Y2009720D02*
X2383500Y2009720D01*
X2407500Y2009720D02*
X2416500Y2009720D01*
X2443500Y2009720D02*
X2456500Y2009720D01*
X2479500Y2009720D02*
X2488500Y2009720D01*
X2519500Y2009720D02*
X2528500Y2009720D01*
X2282500Y2008720D02*
X2291500Y2008720D01*
X2335500Y2008720D02*
X2344500Y2008720D01*
X2374500Y2008720D02*
X2383500Y2008720D01*
X2407500Y2008720D02*
X2416500Y2008720D01*
X2444500Y2008720D02*
X2456500Y2008720D01*
X2479500Y2008720D02*
X2488500Y2008720D01*
X2519500Y2008720D02*
X2528500Y2008720D01*
X2282500Y2007720D02*
X2291500Y2007720D01*
X2334500Y2007720D02*
X2344500Y2007720D01*
X2374500Y2007720D02*
X2383500Y2007720D01*
X2407500Y2007720D02*
X2416500Y2007720D01*
X2445500Y2007720D02*
X2456500Y2007720D01*
X2479500Y2007720D02*
X2488500Y2007720D01*
X2519500Y2007720D02*
X2528500Y2007720D01*
X2282500Y2006720D02*
X2291500Y2006720D01*
X2334500Y2006720D02*
X2344500Y2006720D01*
X2374500Y2006720D02*
X2383500Y2006720D01*
X2407500Y2006720D02*
X2416500Y2006720D01*
X2446500Y2006720D02*
X2456500Y2006720D01*
X2479500Y2006720D02*
X2488500Y2006720D01*
X2519500Y2006720D02*
X2528500Y2006720D01*
X2282500Y2005720D02*
X2291500Y2005720D01*
X2334500Y2005720D02*
X2344500Y2005720D01*
X2374500Y2005720D02*
X2383500Y2005720D01*
X2407500Y2005720D02*
X2416500Y2005720D01*
X2446500Y2005720D02*
X2456500Y2005720D01*
X2479500Y2005720D02*
X2488500Y2005720D01*
X2519500Y2005720D02*
X2528500Y2005720D01*
X2282500Y2004720D02*
X2291500Y2004720D01*
X2334500Y2004720D02*
X2344500Y2004720D01*
X2374500Y2004720D02*
X2383500Y2004720D01*
X2407500Y2004720D02*
X2416500Y2004720D01*
X2446500Y2004720D02*
X2456500Y2004720D01*
X2479500Y2004720D02*
X2488500Y2004720D01*
X2519500Y2004720D02*
X2528500Y2004720D01*
X2282500Y2003720D02*
X2291500Y2003720D01*
X2334500Y2003720D02*
X2344500Y2003720D01*
X2374500Y2003720D02*
X2383500Y2003720D01*
X2407500Y2003720D02*
X2416500Y2003720D01*
X2446500Y2003720D02*
X2456500Y2003720D01*
X2479500Y2003720D02*
X2488500Y2003720D01*
X2519500Y2003720D02*
X2528500Y2003720D01*
X2282500Y2002720D02*
X2291500Y2002720D01*
X2334500Y2002720D02*
X2344500Y2002720D01*
X2374500Y2002720D02*
X2383500Y2002720D01*
X2407500Y2002720D02*
X2416500Y2002720D01*
X2446500Y2002720D02*
X2456500Y2002720D01*
X2479500Y2002720D02*
X2488500Y2002720D01*
X2519500Y2002720D02*
X2528500Y2002720D01*
X2282500Y2001720D02*
X2291500Y2001720D01*
X2334500Y2001720D02*
X2344500Y2001720D01*
X2374500Y2001720D02*
X2383500Y2001720D01*
X2407500Y2001720D02*
X2416500Y2001720D01*
X2446500Y2001720D02*
X2456500Y2001720D01*
X2479500Y2001720D02*
X2488500Y2001720D01*
X2519500Y2001720D02*
X2528500Y2001720D01*
X2282500Y2000720D02*
X2291500Y2000720D01*
X2334500Y2000720D02*
X2344500Y2000720D01*
X2374500Y2000720D02*
X2383500Y2000720D01*
X2407500Y2000720D02*
X2416500Y2000720D01*
X2446500Y2000720D02*
X2456500Y2000720D01*
X2479500Y2000720D02*
X2488500Y2000720D01*
X2519500Y2000720D02*
X2528500Y2000720D01*
X2282500Y1999720D02*
X2291500Y1999720D01*
X2334500Y1999720D02*
X2344500Y1999720D01*
X2374500Y1999720D02*
X2383500Y1999720D01*
X2407500Y1999720D02*
X2416500Y1999720D01*
X2446500Y1999720D02*
X2456500Y1999720D01*
X2479500Y1999720D02*
X2488500Y1999720D01*
X2519500Y1999720D02*
X2528500Y1999720D01*
X2282500Y1998720D02*
X2291500Y1998720D01*
X2334500Y1998720D02*
X2344500Y1998720D01*
X2374500Y1998720D02*
X2383500Y1998720D01*
X2407500Y1998720D02*
X2416500Y1998720D01*
X2446500Y1998720D02*
X2456500Y1998720D01*
X2479500Y1998720D02*
X2488500Y1998720D01*
X2519500Y1998720D02*
X2528500Y1998720D01*
X2282500Y1997720D02*
X2291500Y1997720D01*
X2334500Y1997720D02*
X2344500Y1997720D01*
X2374500Y1997720D02*
X2383500Y1997720D01*
X2407500Y1997720D02*
X2416500Y1997720D01*
X2446500Y1997720D02*
X2456500Y1997720D01*
X2479500Y1997720D02*
X2488500Y1997720D01*
X2519500Y1997720D02*
X2528500Y1997720D01*
X2282500Y1996720D02*
X2291500Y1996720D01*
X2334500Y1996720D02*
X2344500Y1996720D01*
X2374500Y1996720D02*
X2383500Y1996720D01*
X2407500Y1996720D02*
X2416500Y1996720D01*
X2446500Y1996720D02*
X2456500Y1996720D01*
X2479500Y1996720D02*
X2488500Y1996720D01*
X2519500Y1996720D02*
X2528500Y1996720D01*
X2282500Y1995720D02*
X2291500Y1995720D01*
X2334500Y1995720D02*
X2344500Y1995720D01*
X2374500Y1995720D02*
X2383500Y1995720D01*
X2407500Y1995720D02*
X2416500Y1995720D01*
X2446500Y1995720D02*
X2456500Y1995720D01*
X2479500Y1995720D02*
X2488500Y1995720D01*
X2519500Y1995720D02*
X2528500Y1995720D01*
X2282500Y1994720D02*
X2291500Y1994720D01*
X2334500Y1994720D02*
X2344500Y1994720D01*
X2374500Y1994720D02*
X2383500Y1994720D01*
X2407500Y1994720D02*
X2416500Y1994720D01*
X2446500Y1994720D02*
X2456500Y1994720D01*
X2479500Y1994720D02*
X2488500Y1994720D01*
X2519500Y1994720D02*
X2528500Y1994720D01*
X2282500Y1993720D02*
X2291500Y1993720D01*
X2334500Y1993720D02*
X2344500Y1993720D01*
X2374500Y1993720D02*
X2383500Y1993720D01*
X2407500Y1993720D02*
X2416500Y1993720D01*
X2445500Y1993720D02*
X2456500Y1993720D01*
X2479500Y1993720D02*
X2488500Y1993720D01*
X2519500Y1993720D02*
X2528500Y1993720D01*
X2282500Y1992720D02*
X2291500Y1992720D01*
X2334500Y1992720D02*
X2344500Y1992720D01*
X2374500Y1992720D02*
X2383500Y1992720D01*
X2407500Y1992720D02*
X2416500Y1992720D01*
X2445500Y1992720D02*
X2456500Y1992720D01*
X2479500Y1992720D02*
X2488500Y1992720D01*
X2519500Y1992720D02*
X2528500Y1992720D01*
X2282500Y1991720D02*
X2291500Y1991720D01*
X2334500Y1991720D02*
X2344500Y1991720D01*
X2374500Y1991720D02*
X2383500Y1991720D01*
X2407500Y1991720D02*
X2416500Y1991720D01*
X2443500Y1991720D02*
X2456500Y1991720D01*
X2479500Y1991720D02*
X2488500Y1991720D01*
X2519500Y1991720D02*
X2528500Y1991720D01*
X2282500Y1990720D02*
X2291500Y1990720D01*
X2334500Y1990720D02*
X2344500Y1990720D01*
X2374500Y1990720D02*
X2383500Y1990720D01*
X2407500Y1990720D02*
X2416500Y1990720D01*
X2442500Y1990720D02*
X2456500Y1990720D01*
X2479500Y1990720D02*
X2488500Y1990720D01*
X2519500Y1990720D02*
X2528500Y1990720D01*
X2282500Y1989720D02*
X2291500Y1989720D01*
X2334500Y1989720D02*
X2344500Y1989720D01*
X2374500Y1989720D02*
X2383500Y1989720D01*
X2407500Y1989720D02*
X2416500Y1989720D01*
X2441500Y1989720D02*
X2456500Y1989720D01*
X2479500Y1989720D02*
X2488500Y1989720D01*
X2519500Y1989720D02*
X2528500Y1989720D01*
X2282500Y1988720D02*
X2291500Y1988720D01*
X2334500Y1988720D02*
X2344500Y1988720D01*
X2374500Y1988720D02*
X2383500Y1988720D01*
X2407500Y1988720D02*
X2417500Y1988720D01*
X2440500Y1988720D02*
X2456500Y1988720D01*
X2479500Y1988720D02*
X2488500Y1988720D01*
X2519500Y1988720D02*
X2528500Y1988720D01*
X2282500Y1987720D02*
X2291500Y1987720D01*
X2335500Y1987720D02*
X2344500Y1987720D01*
X2374500Y1987720D02*
X2383500Y1987720D01*
X2407500Y1987720D02*
X2418500Y1987720D01*
X2439500Y1987720D02*
X2456500Y1987720D01*
X2479500Y1987720D02*
X2488500Y1987720D01*
X2519500Y1987720D02*
X2528500Y1987720D01*
X2282500Y1986720D02*
X2291500Y1986720D01*
X2335500Y1986720D02*
X2344500Y1986720D01*
X2374500Y1986720D02*
X2383500Y1986720D01*
X2408500Y1986720D02*
X2419500Y1986720D01*
X2438500Y1986720D02*
X2456500Y1986720D01*
X2479500Y1986720D02*
X2488500Y1986720D01*
X2519500Y1986720D02*
X2528500Y1986720D01*
X2282500Y1985720D02*
X2291500Y1985720D01*
X2335500Y1985720D02*
X2344500Y1985720D01*
X2374500Y1985720D02*
X2383500Y1985720D01*
X2408500Y1985720D02*
X2420500Y1985720D01*
X2437500Y1985720D02*
X2456500Y1985720D01*
X2479500Y1985720D02*
X2489500Y1985720D01*
X2518500Y1985720D02*
X2528500Y1985720D01*
X2282500Y1984720D02*
X2291500Y1984720D01*
X2335500Y1984720D02*
X2345500Y1984720D01*
X2373500Y1984720D02*
X2383500Y1984720D01*
X2409500Y1984720D02*
X2422500Y1984720D01*
X2435500Y1984720D02*
X2456500Y1984720D01*
X2479500Y1984720D02*
X2490500Y1984720D01*
X2517500Y1984720D02*
X2528500Y1984720D01*
X2282500Y1983720D02*
X2291500Y1983720D01*
X2335500Y1983720D02*
X2346500Y1983720D01*
X2372500Y1983720D02*
X2383500Y1983720D01*
X2410500Y1983720D02*
X2456500Y1983720D01*
X2480500Y1983720D02*
X2490500Y1983720D01*
X2516500Y1983720D02*
X2527500Y1983720D01*
X2282500Y1982720D02*
X2291500Y1982720D01*
X2335500Y1982720D02*
X2347500Y1982720D01*
X2371500Y1982720D02*
X2382500Y1982720D01*
X2410500Y1982720D02*
X2456500Y1982720D01*
X2480500Y1982720D02*
X2491500Y1982720D01*
X2516500Y1982720D02*
X2527500Y1982720D01*
X2282500Y1981720D02*
X2291500Y1981720D01*
X2336500Y1981720D02*
X2348500Y1981720D01*
X2370500Y1981720D02*
X2382500Y1981720D01*
X2411500Y1981720D02*
X2456500Y1981720D01*
X2480500Y1981720D02*
X2493500Y1981720D01*
X2514500Y1981720D02*
X2526500Y1981720D01*
X2282500Y1980720D02*
X2291500Y1980720D01*
X2336500Y1980720D02*
X2350500Y1980720D01*
X2368500Y1980720D02*
X2381500Y1980720D01*
X2412500Y1980720D02*
X2456500Y1980720D01*
X2481500Y1980720D02*
X2494500Y1980720D01*
X2513500Y1980720D02*
X2526500Y1980720D01*
X2271500Y1979720D02*
X2302500Y1979720D01*
X2337500Y1979720D02*
X2381500Y1979720D01*
X2413500Y1979720D02*
X2444500Y1979720D01*
X2446500Y1979720D02*
X2456500Y1979720D01*
X2481500Y1979720D02*
X2525500Y1979720D01*
X2269500Y1978720D02*
X2304500Y1978720D01*
X2338500Y1978720D02*
X2380500Y1978720D01*
X2414500Y1978720D02*
X2443500Y1978720D01*
X2446500Y1978720D02*
X2456500Y1978720D01*
X2482500Y1978720D02*
X2524500Y1978720D01*
X2268500Y1977720D02*
X2305500Y1977720D01*
X2339500Y1977720D02*
X2379500Y1977720D01*
X2416500Y1977720D02*
X2442500Y1977720D01*
X2446500Y1977720D02*
X2456500Y1977720D01*
X2483500Y1977720D02*
X2524500Y1977720D01*
X2267500Y1976720D02*
X2306500Y1976720D01*
X2340500Y1976720D02*
X2378500Y1976720D01*
X2417500Y1976720D02*
X2440500Y1976720D01*
X2446500Y1976720D02*
X2456500Y1976720D01*
X2484500Y1976720D02*
X2523500Y1976720D01*
X2267500Y1975720D02*
X2306500Y1975720D01*
X2341500Y1975720D02*
X2377500Y1975720D01*
X2419500Y1975720D02*
X2438500Y1975720D01*
X2446500Y1975720D02*
X2456500Y1975720D01*
X2485500Y1975720D02*
X2521500Y1975720D01*
X2267500Y1974720D02*
X2306500Y1974720D01*
X2342500Y1974720D02*
X2376500Y1974720D01*
X2421500Y1974720D02*
X2436500Y1974720D01*
X2446500Y1974720D02*
X2456500Y1974720D01*
X2487500Y1974720D02*
X2520500Y1974720D01*
X2267500Y1973720D02*
X2306500Y1973720D01*
X2343500Y1973720D02*
X2375500Y1973720D01*
X2446500Y1973720D02*
X2456500Y1973720D01*
X2488500Y1973720D02*
X2519500Y1973720D01*
X2268500Y1972720D02*
X2305500Y1972720D01*
X2345500Y1972720D02*
X2373500Y1972720D01*
X2446500Y1972720D02*
X2456500Y1972720D01*
X2489500Y1972720D02*
X2518500Y1972720D01*
X2268500Y1971720D02*
X2305500Y1971720D01*
X2346500Y1971720D02*
X2372500Y1971720D01*
X2446500Y1971720D02*
X2456500Y1971720D01*
X2491500Y1971720D02*
X2516500Y1971720D01*
X2270500Y1970720D02*
X2304500Y1970720D01*
X2348500Y1970720D02*
X2370500Y1970720D01*
X2446500Y1970720D02*
X2456500Y1970720D01*
X2493500Y1970720D02*
X2514500Y1970720D01*
X2446500Y1969720D02*
X2456500Y1969720D01*
X2446500Y1968720D02*
X2456500Y1968720D01*
X2446500Y1967720D02*
X2456500Y1967720D01*
X2446500Y1966720D02*
X2456500Y1966720D01*
X2446500Y1965720D02*
X2455500Y1965720D01*
X2446500Y1964720D02*
X2455500Y1964720D01*
X2445500Y1963720D02*
X2455500Y1963720D01*
X2444500Y1962720D02*
X2455500Y1962720D01*
X2443500Y1961720D02*
X2455500Y1961720D01*
X2442500Y1960720D02*
X2454500Y1960720D01*
X2441500Y1959720D02*
X2454500Y1959720D01*
X2417500Y1958720D02*
X2453500Y1958720D01*
X2414500Y1957720D02*
X2452500Y1957720D01*
X2413500Y1956720D02*
X2451500Y1956720D01*
X2412500Y1955720D02*
X2450500Y1955720D01*
X2412500Y1954720D02*
X2449500Y1954720D01*
X2412500Y1953720D02*
X2448500Y1953720D01*
X2412500Y1952720D02*
X2447500Y1952720D01*
X2412500Y1951720D02*
X2446500Y1951720D01*
X2413500Y1950720D02*
X2445500Y1950720D01*
X2414500Y1949720D02*
X2443500Y1949720D01*
X2416500Y1948720D02*
X2438500Y1948720D01*
D02*
G04 End of Copper1*
M02*